<?xml version="1.0" encoding="UTF-8"?>
<!DOCTYPE svg PUBLIC "-//W3C//DTD SVG 1.1//EN" "http://www.w3.org/Graphics/SVG/1.1/DTD/svg11.dtd">
<svg xmlns="http://www.w3.org/2000/svg" version="1.1" width="512px" height="512px" style="shape-rendering:geometricPrecision; text-rendering:geometricPrecision; image-rendering:optimizeQuality; fill-rule:evenodd; clip-rule:evenodd" xmlns:xlink="http://www.w3.org/1999/xlink">
<g><path style="opacity:0.979" fill="#fdfdfd" d="M 264.5,32.5 C 286.536,30.1009 303.036,38.4343 314,57.5C 319.523,69.4028 323.857,81.7362 327,94.5C 337.376,136.672 348.376,178.672 360,220.5C 371.09,221.322 382.257,221.822 393.5,222C 408.499,222.658 420.999,228.491 431,239.5C 440.348,254.322 439.515,268.488 428.5,282C 424.613,285.111 420.28,287.444 415.5,289C 405.821,290.252 396.155,291.585 386.5,293C 385.692,293.308 385.025,293.808 384.5,294.5C 395.971,325.414 409.471,355.414 425,384.5C 430.608,393.772 436.608,402.772 443,411.5C 449.478,417.734 456.145,423.734 463,429.5C 471.148,443.534 469.982,456.701 459.5,469C 451.229,475.072 441.896,478.072 431.5,478C 399.046,481.377 368.712,475.043 340.5,459C 327.621,450.455 317.121,439.621 309,426.5C 294.716,397.983 283.382,368.317 275,337.5C 250.973,348.563 228.806,362.396 208.5,379C 190.648,395.552 173.815,413.052 158,431.5C 150.799,446.765 140.632,459.598 127.5,470C 105.876,482.971 84.5424,482.638 63.5,469C 43.1427,450.574 37.1427,428.241 45.5,402C 58.8722,364.756 74.0388,328.256 91,292.5C 122.165,225.829 156.165,160.829 193,97.5C 202.257,82.1634 213.091,67.9967 225.5,55C 237.069,44.8866 250.069,37.3866 264.5,32.5 Z"/></g>
<g><path style="opacity:1" fill="#010101" d="M 269.5,61.5 C 277.066,61.1992 282.899,64.1992 287,70.5C 288.941,74.0477 290.607,77.7143 292,81.5C 303.825,125.801 315.492,170.135 327,214.5C 330.927,226.782 334.76,239.115 338.5,251.5C 340.167,251.833 341.833,252.167 343.5,252.5C 358.46,250.74 373.46,250.24 388.5,251C 395.242,251.721 401.408,253.888 407,257.5C 407.483,258.448 407.649,259.448 407.5,260.5C 386.102,262.122 365.102,265.788 344.5,271.5C 357.456,309.411 372.623,346.411 390,382.5C 399.849,402.882 412.183,421.548 427,438.5C 430.5,441.333 434,444.167 437.5,447C 409.745,451.861 383.412,447.861 358.5,435C 346.897,428.064 338.064,418.564 332,406.5C 315.815,369.279 302.815,330.946 293,291.5C 292.802,289.089 291.636,287.423 289.5,286.5C 265.856,294.103 243.189,303.936 221.5,316C 220.304,316.654 220.304,317.154 221.5,317.5C 239.524,308.597 258.524,304.097 278.5,304C 211.104,330.728 158.271,374.895 120,436.5C 111.363,447.712 100.196,451.546 86.5,448C 76.796,442.78 71.796,434.613 71.5,423.5C 72.8033,412.755 75.6366,402.422 80,392.5C 115.177,307.48 155.177,224.813 200,144.5C 209.603,127.903 219.603,111.569 230,95.5C 240.26,80.7365 253.427,69.4032 269.5,61.5 Z"/></g>
<g><path style="opacity:1" fill="#fbfbfb" d="M 258.5,156.5 C 267.052,190.875 275.719,225.375 284.5,260C 284.095,260.945 283.428,261.612 282.5,262C 255.375,267.458 228.708,274.625 202.5,283.5C 201.417,282.635 201.251,281.635 202,280.5C 220.026,238.783 238.859,197.45 258.5,156.5 Z"/></g>
</svg>
