<?xml version="1.0" encoding="UTF-8" standalone="no"?>
<!-- Created with Inkscape (http://www.inkscape.org/) -->

<svg
   width="130.13567mm"
   height="108.26001mm"
   viewBox="0 0 130.13567 108.26001"
   version="1.1"
   id="svg1"
   xml:space="preserve"
   inkscape:version="1.3.2 (091e20e, 2023-11-25, custom)"
   sodipodi:docname="LOGO SCHOOL.svg"
   xmlns:inkscape="http://www.inkscape.org/namespaces/inkscape"
   xmlns:sodipodi="http://sodipodi.sourceforge.net/DTD/sodipodi-0.dtd"
   xmlns:xlink="http://www.w3.org/1999/xlink"
   xmlns="http://www.w3.org/2000/svg"
   xmlns:svg="http://www.w3.org/2000/svg"><sodipodi:namedview
     id="namedview1"
     pagecolor="#ffffff"
     bordercolor="#000000"
     borderopacity="0.25"
     inkscape:showpageshadow="2"
     inkscape:pageopacity="0.0"
     inkscape:pagecheckerboard="0"
     inkscape:deskcolor="#d1d1d1"
     inkscape:document-units="mm"
     inkscape:zoom="1"
     inkscape:cx="424"
     inkscape:cy="781.5"
     inkscape:window-width="2560"
     inkscape:window-height="1369"
     inkscape:window-x="-8"
     inkscape:window-y="-8"
     inkscape:window-maximized="1"
     inkscape:current-layer="g78" /><defs
     id="defs1"><linearGradient
       id="swatch1"
       inkscape:swatch="solid"><stop
         style="stop-color:#ffffff;stop-opacity:1;"
         offset="0"
         id="stop1" /></linearGradient><linearGradient
       inkscape:collect="always"
       xlink:href="#swatch1"
       id="linearGradient13"
       gradientUnits="userSpaceOnUse"
       gradientTransform="matrix(1.0635838,0,0,1.0635838,-16.287341,14.119067)"
       x1="62.292839"
       y1="47.79092"
       x2="85.194374"
       y2="47.79092" /></defs><g
     inkscape:label="Layer 1"
     inkscape:groupmode="layer"
     id="layer1"
     transform="translate(25.525603,-111.50998)"><g
       id="g78"
       transform="translate(-22.225,58.208333)"><path
         id="circle13"
         style="fill:url(#linearGradient13);stroke:#ffffff;stroke-width:0;stroke-dasharray:none;stroke-opacity:0"
         d="m 62.145014,53.301647 c -6.432514,-1.6e-4 -11.647229,5.21432 -11.647353,11.64684 -1.62e-4,6.43271 5.214636,11.64751 11.647353,11.64735 6.43251,-1.3e-4 11.64699,-5.21484 11.64683,-11.64735 -1.2e-4,-6.43231 -5.21452,-11.64671 -11.64683,-11.64684 z m 0,1.58233 c 5.55845,5e-5 10.06446,4.50606 10.0645,10.06451 2.4e-4,5.55865 -4.50585,10.06497 -10.0645,10.06502 -5.558652,-5e-5 -10.064748,-4.50637 -10.064504,-10.06502 4.1e-5,-5.55845 4.506054,-10.06446 10.064504,-10.06451 z m -30.695802,1.10175 c -1.673599,1.56769 -2.852041,3.59143 -3.388941,5.82083 -0.530799,2.2285 -0.533967,4.73833 0.346232,6.85333 1.595499,-1.6439 2.88303,-3.72438 3.41943,-5.95158 0.533199,-2.22949 0.402278,-4.56669 -0.376721,-6.72258 z m 60.339981,0 c -0.779,2.15589 -0.90992,4.49309 -0.37672,6.72258 0.5364,2.2272 1.82342,4.30768 3.41892,5.95158 0.88019,-2.115 0.87703,-4.62483 0.34623,-6.85333 -0.5369,-2.2294 -1.71483,-4.25314 -3.38843,-5.82083 z m -23.012549,1.85466 c 0.0277,0.80127 -0.51507,1.50702 -1.29191,1.68 -0.77442,0.16876 -1.56068,-0.23954 -1.87482,-0.97358 0.002,0.10524 0.0136,0.21009 0.0351,0.31316 0.14062,0.6381 0.63819,1.13588 1.27279,1.27331 v 0.0109 1.83555 l -0.62683,0.62683 v 0.89504 1.84898 l -0.61133,0.65061 v 1.10432 l 0.61133,0.65061 v 2.71818 c -0.73396,-0.17925 -1.48576,-0.27528 -2.24121,-0.28629 v -0.53743 l -0.61547,-0.61495 v -1.80093 -0.0439 -0.20774 c 0.56074,-0.23903 0.92492,-0.79314 0.9245,-1.40663 -0.001,-0.0966 -0.0117,-0.19276 -0.031,-0.28733 -0.13542,0.71813 -0.75716,1.23866 -1.4826,1.24127 -0.72845,-7.6e-4 -1.3532,-0.52392 -1.48724,-1.2454 -0.0191,0.0972 -0.0288,0.196 -0.0289,0.29507 10e-4,0.56964 0.31688,1.09128 0.81907,1.35289 v 0.25787 0.0439 2.41588 0.3886 l -0.40308,0.40308 c -1.806148,0.4014 -3.466703,1.29292 -4.799188,2.57659 1.567131,0.95315 3.364946,1.45992 5.199168,1.46554 2.60873,-0.009 5.11198,-1.031 6.982,-2.84996 -0.13133,-0.0755 -0.26434,-0.14805 -0.39894,-0.21755 v -3.54139 l 0.7829,-0.81339 v -1.25522 l -0.7829,-0.81338 v -1.4919 l -0.4992,-0.4992 v -0.39584 -2.50682 -0.24081 c 0.53629,-0.3876 0.79107,-1.0601 0.64803,-1.71049 -0.0234,-0.10567 -0.057,-0.20882 -0.10026,-0.308 z m -45.496443,3.28352 c -1.598198,1.6445 -3.333553,4.44168 -3.543453,6.72518 -0.204,2.28179 0.159438,4.79521 1.342037,6.75721 1.335499,-1.8614 2.421402,-4.27869 2.743502,-6.54689 0.3188,-2.27 0.337313,-4.8186 -0.542086,-6.9355 z m 76.678002,0 c -0.8794,2.1169 -0.8614,4.6655 -0.5426,6.9355 0.3221,2.2682 1.407997,4.68549 2.743497,6.54689 1.1826,-1.962 1.54656,-4.47542 1.34256,-6.75721 -0.2099,-2.2835 -1.94526,-5.08068 -3.543457,-6.72518 z m -56.640465,2.14871 a 11.743422,11.743422 0 0 0 -2.893364,0.39532 11.743422,11.743422 0 0 0 -5.724198,3.53829 11.743422,11.743422 0 0 0 6.726204,0.20206 11.743422,11.743422 0 0 0 5.7304,-3.53571 11.743422,11.743422 0 0 0 -3.839042,-0.59996 z m 36.967256,0.0935 a 11.743422,11.743422 0 0 0 -3.83905,0.59997 11.743422,11.743422 0 0 0 5.7304,3.5357 11.743422,11.743422 0 0 0 6.726209,-0.20206 11.743422,11.743422 0 0 0 -5.724199,-3.53828 11.743422,11.743422 0 0 0 -2.89336,-0.39533 z m -46.329992,4.36666 C 4.9644503,84.618647 3.5869133,113.75947 13.717994,132.79083 c 3.452893,6.48645 9.502058,12.95891 13.027112,15.70602 l 0.02739,-0.30903 C 23.208726,145.30039 17.456311,139.06791 14.114869,132.79083 4.0342213,113.8542 5.3586663,84.913307 33.931747,67.990647 Z m 55.609521,5.2e-4 0.0191,0.21446 c 28.642747,16.91667 29.975777,45.891053 19.886657,64.843583 -3.36005,6.31195 -9.16038,12.58254 -12.719117,15.44816 l 0.0233,0.25786 c 3.525047,-2.7471 9.573667,-9.21961 13.026587,-15.70602 10.1311,-19.0314 8.754,-48.172153 -20.236487,-65.058043 z m -74.668306,0.17622 c -1.337899,1.86239 -2.996183,5.33755 -2.733684,7.61555 0.268,2.2751 1.074284,4.62526 2.638082,6.29936 0.920399,-2.0978 1.630165,-4.5969 1.487765,-6.8833 -0.146,-2.2876 -0.209964,-5.06762 -1.392163,-7.03161 z m 93.445453,0 c -1.1822,1.96399 -1.24564,4.74401 -1.39164,7.03161 -0.1424,2.2864 0.56736,4.7855 1.48776,6.8833 1.5638,-1.6741 2.37008,-4.02426 2.63808,-6.29936 0.2625,-2.278 -1.3963,-5.75316 -2.7342,-7.61555 z m -73.378461,3.6561 c -1.384978,-0.0359 -2.753784,0.19247 -4.07572,0.74259 1.643898,1.5955 3.450392,2.82371 5.677689,3.36001 2.229398,0.5332 4.566173,0.40227 6.722071,-0.37673 -1.567599,-1.67359 -3.590919,-2.85152 -5.820317,-3.38842 -0.835724,-0.19905 -1.672736,-0.31592 -2.503723,-0.33745 z m 53.311474,0 c -0.83099,0.0215 -1.667479,0.1384 -2.503209,0.33745 -2.22939,0.5369 -4.25272,1.71483 -5.82031,3.38842 2.15589,0.779 4.49267,0.90993 6.72207,0.37673 2.227289,-0.5363 4.033789,-1.76451 5.677689,-3.36001 -1.32194,-0.55012 -2.69126,-0.77847 -4.07624,-0.74259 z m -80.9113397,4.98988 c -0.922599,2.0993 -1.630373,5.38564 -1.010274,7.59334 0.624999,2.20389 1.767858,4.64782 3.6483557,5.95622 0.4594,-2.2443 0.764216,-4.99588 0.262516,-7.23108 -0.5053987,-2.2359 -1.3367987,-4.64238 -2.9005977,-6.31848 z m 108.5112067,0 c -1.5638,1.6761 -2.3952,4.08258 -2.9006,6.31848 -0.5017,2.2352 -0.19637,4.98678 0.26303,7.23108 1.8805,-1.3084 3.02336,-3.75233 3.64836,-5.95622 0.6201,-2.2077 -0.0882,-5.49404 -1.01079,-7.59334 z m -87.21845,0.004 c -1.614607,0.008 -3.113309,0.40127 -4.584733,1.28829 1.861298,1.3354 3.797918,2.28224 6.079216,2.49184 2.282997,0.2063 3.744143,0.39158 5.861141,-0.48782 -1.644599,-1.5981 -3.429096,-2.85302 -5.699394,-3.17552 -0.567224,-0.0791 -1.118027,-0.11943 -1.65623,-0.11679 z m 65.926203,0 c -0.5382,-0.003 -1.089,0.0377 -1.65622,0.11679 -2.2703,0.3225 -4.0548,1.57742 -5.6994,3.17552 2.117,0.8794 3.57814,0.69412 5.86114,0.48782 2.2813,-0.2096 4.21792,-1.15644 6.07922,-2.49184 -1.47143,-0.88702 -2.97013,-1.28038 -4.58474,-1.28829 z m -70.198293,5.51078 c -2.286098,0.1481 -4.31055,0.74097 -5.984648,2.30477 2.097798,0.9204 4.240184,1.50315 6.515881,1.24075 2.276798,-0.2659 3.373761,0.11973 5.337659,-1.06247 -1.862398,-1.3379 -3.580295,-2.62545 -5.868892,-2.48305 z m 74.470393,0 c -2.2886,-0.1424 -4.0065,1.14515 -5.8689,2.48305 1.9639,1.1822 3.06086,0.79657 5.33766,1.06247 2.275697,0.2624 4.417567,-0.32035 6.515367,-1.24075 -1.6741,-1.5638 -3.69804,-2.15667 -5.984127,-2.30477 z m -37.454569,0.39791 c -12.292979,0.0212 -24.242352,1.86087 -34.066134,5.24464 -0.0752,0.0242 -0.134328,0.0394 -0.202054,0.0641 -0.07163,0.0276 -0.143122,0.0554 -0.214458,0.0832 -0.35045,2.71735 -0.442133,5.71096 -0.270784,8.84184 0.455795,9.415563 8.573532,28.155633 9.391158,29.757873 1.018248,0 1.237542,-0.12976 1.987476,-0.016 0.0159,0.27851 0.04308,0.48013 0.108003,0.72244 0.399872,1.45595 0.894979,1.99979 1.999361,1.99987 0.687042,-4.9e-4 1.325717,-0.35368 1.69137,-0.93534 -0.505314,-0.67003 -0.998598,-1.34882 -1.474845,-2.0376 -0.03254,0.002 -0.0651,0.003 -0.09767,0.005 -2.802824,1.7e-4 -5.075088,-1.97872 -5.075142,-4.41989 0.0017,-0.94834 0.353524,-1.87107 1.003556,-2.63188 -0.647318,-1.2885 -1.25359,-2.58107 -1.768884,-3.87418 h 5.642549 3.157947 4.754749 13.419331 v -21.775463 -7.24401 c 0.56274,-0.009 1.12452,-0.0135 1.68517,-0.0139 v -5.1e-4 c 10.06656,0.1883 19.55404,1.71927 27.7394,4.47621 0.0545,0.0168 0.10892,0.0338 0.16329,0.0506 h 5.2e-4 v 0.001 l 0.0408,0.0129 -0.0388,0.004 c 0.0159,0.12261 0.0315,0.24525 0.0465,0.36793 v 12.408553 5.2e-4 c -0.51575,4.05518 -1.53687,7.99308 -3.03703,11.71194 h -2.77916 -2.77864 -21.04213 v 5.19762 h -9.012365 v 1.20871 h 0.716235 c 3.4e-5,-0.24029 0.194822,-0.43508 0.435116,-0.43512 0.240294,4e-5 0.435081,0.19483 0.435115,0.43512 h 7.425899 v 1.0294 h -8.442891 v 1.20871 7.90029 h 1.163753 v -7.90029 h 7.279138 v 9.23768 0.53795 10.80037 c -4.696264,-2.0802 -9.464826,-5.42045 -13.813106,-9.67589 -1.374228,-1.35931 -2.678802,-2.80955 -3.926375,-4.31085 0.239262,-0.23722 0.446346,-0.51038 0.618567,-0.82217 0.366574,-0.66366 0.549837,-1.3756 0.549837,-2.13579 0,-0.83862 -0.154568,-1.54127 -0.463537,-2.1084 -0.009,-0.017 -0.0192,-0.0328 -0.02842,-0.0496 -0.0071,-0.0152 -0.0092,-0.0346 -0.01654,-0.0496 -5.21e-4,0.0105 -0.0015,0.007 -0.0021,0.0171 -0.300032,-0.53345 -0.707889,-0.95679 -1.225765,-1.26659 -0.539387,-0.33183 -1.374647,-0.65142 -2.50579,-0.95911 -1.131143,-0.3077 -1.843044,-0.60321 -2.136304,-0.88677 -0.230418,-0.22323 -0.345715,-0.49191 -0.345715,-0.80564 0,-0.34389 0.122841,-0.61859 0.36897,-0.82372 0.382283,-0.31976 0.911438,-0.47956 1.586983,-0.47956 0.569904,0 1.014451,0.115 1.334285,0.34365 0.0016,0.001 0.0036,0.002 0.0052,0.003 0.001,8.4e-4 0.0021,0.002 0.0031,0.003 0.02567,0.0186 0.04882,0.0393 0.07286,0.0594 0.312247,0.28584 0.517684,0.7461 0.6134,1.38597 l 0.06201,-0.003 c 0.0074,0.0423 0.01581,0.0832 0.02222,0.12712 l 2.324923,-0.11782 c -0.03666,-1.21872 -0.421303,-2.1928 -1.154452,-2.92282 -0.727911,-0.73002 -1.814916,-1.09502 -3.260266,-1.09502 -0.885014,0 -1.641733,0.15377 -2.270145,0.46147 -0.623177,0.30769 -1.101968,0.75698 -1.437122,1.34823 -0.329917,0.58523 -0.49506,1.21564 -0.49506,1.89136 0,1.04979 0.353436,1.9401 1.0604,2.67012 0.502731,0.51886 1.37726,0.95611 2.623613,1.31207 0.968803,0.27753 1.58959,0.47069 1.861901,0.57929 0.397996,0.1629 0.675404,0.35606 0.832508,0.57929 0.16234,0.2172 0.243396,0.48261 0.243396,0.79634 0,0.48869 -0.190807,0.91664 -0.573092,1.28467 -0.377048,0.362 -0.940444,0.54312 -1.689302,0.54312 -0.706966,0 -1.269845,-0.2052 -1.688786,-0.61546 -0.413732,-0.41027 -0.6886,-1.05271 -0.824756,-1.92754 l -2.262394,0.25374 c 0.151866,1.48417 0.618085,2.6153 1.398364,3.39359 0.752104,0.74437 1.819029,1.1286 3.198771,1.15548 4.789384,6.27988 10.381529,11.27332 16.12408,14.32264 l -0.0015,0.003 c 1.639188,0.88428 3.323519,1.6415 5.042581,2.26705 0.0647,-0.0173 0.12949,-0.0349 0.19431,-0.0527 0.14467,-0.0447 0.51904,-0.18944 0.68574,-0.25373 0.15999,-0.046 1.36094,-0.44724 3.00137,-1.26969 l 1.05937,-0.55656 c 5.5612,-3.01709 10.96493,-7.85487 15.62644,-13.90044 h 1.4118 l 0.78858,-3.02514 c 0.15726,-0.21891 0.31622,-0.43566 0.46767,-0.66249 0.0664,-0.10089 0.13253,-0.20201 0.19844,-0.30334 l 0.71623,-1.11828 v 5.10925 h 0.7736 1.979208 0.77308 v -0.76321 -10.67222 c 3.89841,-7.8943 6.23231,-16.31427 6.57375,-24.066233 0.15049,-3.26996 0.0114,-6.3763 -0.41031,-9.16068 -9.756348,-3.2841 -21.543118,-5.06096 -33.652208,-5.07308 z m -59.7756747,4.04678 c -0.4611,2.2463 -0.500093,5.56637 0.564306,7.59747 1.068499,2.0265 2.675956,4.15344 4.782654,5.05344 -0.0051,-2.2909 -0.249979,-5.01676 -1.207678,-7.09776 -0.961499,-2.0809 -2.258384,-4.24285 -4.139282,-5.55315 z m 119.9900907,0 c -1.8809,1.3103 -3.17779,3.47225 -4.13929,5.55315 -0.95769,2.081 -1.20319,4.80686 -1.20819,7.09776 2.1067,-0.9 3.71415,-3.02694 4.78265,-5.05344 1.0644,-2.0311 1.02593,-5.35117 0.56483,-7.59747 z m -100.573189,1.93735 c -0.545866,1.9e-4 -1.097913,0.0569 -1.657263,0.18242 -2.233998,0.5072 -4.019441,1.32767 -5.32784,3.20807 2.244298,0.4594 4.281961,0.86868 6.487459,0.24908 2.205898,-0.6232 3.617636,-0.87543 5.293734,-2.43913 -1.574473,-0.69195 -3.15849,-1.20103 -4.79609,-1.20044 z m 81.156279,0 c -1.6376,-5.9e-4 -3.221607,0.50849 -4.796087,1.20044 1.6761,1.5637 3.087837,1.81593 5.293737,2.43913 2.2055,0.6196 4.24264,0.21032 6.48694,-0.24908 -1.3084,-1.8804 -3.09384,-2.70087 -5.32784,-3.20807 -0.55935,-0.12553 -1.11088,-0.18223 -1.65675,-0.18242 z m -47.208997,0.48317 c 0.01453,0.0173 0.268018,1.7345 0.338481,3.49591 1.10014,-0.0846 2.143551,-0.1973 2.425692,-0.45113 0.04226,-0.0145 0.08482,-0.0289 0.127124,-0.0145 0.02819,0.0282 0.07044,0.0703 0.05633,0.11265 -2e-6,0.0282 -0.08454,0.84626 -0.535885,1.2976 -0.08463,0.0846 -0.155517,0.15558 -0.254248,0.19792 0,0 -0.02827,-4.9e-4 -0.04237,0.0139 l -0.01395,0.0145 c -0.01409,0.0143 -0.02827,3e-5 -0.04238,0.0145 l -0.01344,0.0145 c -0.0141,0.0145 -0.02826,4e-5 -0.04237,0.0145 h -0.02015 c -0.0027,0.002 -0.006,0.003 -0.0088,0.005 l -0.01395,0.0145 c 0,0 -0.01426,0.0144 -0.02842,0 l -0.01395,0.0145 c 0,0 -0.01428,0.0145 -0.02842,0 h -0.02791 -0.02842 l -0.03721,0.004 -0.0047,0.005 h -0.02842 -0.0098 l -0.173633,0.0191 c -0.02813,4e-5 -0.05646,4e-5 -0.08475,0 -0.02826,-8e-5 -0.05643,3e-5 -0.0987,0.0145 l -0.09612,0.007 -0.0026,0.003 -0.04238,0.0139 c -0.01402,0.0144 -0.0279,5.1e-4 -0.0279,5.1e-4 l -0.02842,-5.1e-4 -0.01395,0.0145 h -0.05633 c -0.01415,0.0144 -0.02842,0 -0.02842,0 l -0.04237,0.0145 -0.01395,0.0145 -0.04237,0.0145 -0.0708,0.0145 h -0.0279 -0.113172 c -0.112832,0.0282 -0.239442,0.0135 -0.366386,0.0279 -0.04231,1.08603 -0.211726,1.84795 -0.507979,2.28513 -0.04226,0.0705 -0.08468,0.11253 -0.141077,0.16898 -0.183354,0.18337 -0.422843,0.31049 -0.747241,0.40928 6e-5,0.0282 -0.02827,0.0559 -0.04237,0.0703 l -0.02842,0.0284 c -5e-5,0.0281 -0.0138,0.0419 -0.02791,0.0563 -0.01408,0.0423 -0.04259,0.0705 -0.0708,0.0987 l -0.01395,0.0145 c -0.0141,0.0141 -0.02827,0.028 -0.04237,0.0424 -0.02822,0.0282 -0.05654,0.0565 -0.08475,0.0848 -0.0141,0.0141 -0.02827,0.028 -0.04238,0.0424 -0.02822,0.0282 -0.04207,0.0426 -0.07028,0.0708 l -0.02842,0.0279 c -0.0141,0.0138 -0.01379,0.014 -0.0279,0.0284 -0.02821,0.0282 -0.04259,0.0421 -0.0708,0.0703 -0.02819,0.0282 -0.04221,0.0419 -0.05633,0.0563 -0.04236,0.014 -0.05654,0.0281 -0.08475,0.0563 -0.0141,0.0141 -0.02826,0.028 -0.04237,0.0424 -0.02821,0.0282 -0.05602,0.0281 -0.08423,0.0563 -0.02826,-1.4e-4 -0.04273,0.014 -0.05684,0.0284 -0.0282,0.0282 -0.05602,0.0281 -0.08423,0.0563 -0.01412,0.0138 -0.04273,0.014 -0.05684,0.0284 -0.01409,0.014 -0.05617,0.0275 -0.07028,0.0419 -0.01412,0.0144 -0.02827,4e-5 -0.04237,0.0145 l -0.01395,0.0145 c -0.02815,0 -0.05651,0.0285 -0.08475,0.0284 -0.01409,0.0143 -0.02827,4e-5 -0.04238,0.0145 l -0.01395,0.0139 c -0.02815,1.4e-4 -0.05651,0.0285 -0.08475,0.0284 h -0.02791 l -0.01447,0.0145 c -0.02825,0 -0.05606,0.0284 -0.08423,0.0284 -0.01415,-0.0145 -0.02842,-5.2e-4 -0.02842,-5.2e-4 l -0.01395,0.0145 c -0.04234,0.0138 -0.08493,0.0285 -0.113171,0.0284 -0.112835,0.0282 -0.253824,0.0563 -0.394808,0.0563 -0.04237,0.0144 -0.07046,0.0145 -0.0987,0.0145 h -0.02842 c -0.05643,0 -0.08438,3e-5 -0.112655,0 h -0.05633 c -0.04231,-0.0144 -0.07055,-0.0145 -0.0987,-0.0145 h -0.05633 c -0.04233,-0.0144 -0.07044,-0.0144 -0.0987,-0.0145 h -0.05633 -0.02842 c -0.01416,-0.0144 -0.04256,-0.0144 -0.0708,-0.0145 h -0.05633 c -0.04232,-0.0144 -0.07043,-0.0139 -0.0987,-0.0139 h -0.05633 c -0.02818,0 -0.07044,-0.0144 -0.0987,-0.0145 l -0.04238,-0.0145 -0.0987,-0.0145 h -0.02842 l -0.155029,-0.0145 -0.211873,-0.0253 -0.173116,-0.0171 c -0.0174,-2e-5 -0.03487,-2e-5 -0.05219,0 h -0.05633 c -0.02829,-5e-5 -0.05648,5e-5 -0.08475,0 h -0.05633 -0.02842 c -0.01409,0.0144 -0.02809,6e-5 -0.05633,0 h -0.05633 c -0.04236,0.0144 -0.08468,0 -0.141077,0 h -0.141076 -0.05633 c -0.05643,0 -0.08451,-4e-5 -0.112654,0 h -0.225826 c -0.02816,6e-5 -0.08502,-4e-5 -0.113172,0 h -0.05633 c -0.04226,0.0144 -0.09863,0.0145 -0.155029,0.0145 l -0.592212,0.0279 c 0,0.33851 -0.01431,0.69126 -0.02842,1.04387 -0.04231,1.170653 -0.05605,2.256613 -0.22531,3.131073 -0.08467,0.4795 -0.268273,0.86047 -0.550354,1.14257 -0.155142,0.15515 -0.352745,0.29601 -0.564306,0.3948 -0.01404,0.014 -0.01381,0.0419 -0.02791,0.0563 -0.01409,0.0142 -0.02827,0.0564 -0.04237,0.0708 -0.01415,0.0142 -0.01431,0.0419 -0.02842,0.0563 -0.0141,0.0142 -0.02775,0.0564 -0.04186,0.0708 l -0.01447,0.0139 c 0,0.0279 1.47e-4,0.028 -0.01395,0.0424 -0.0141,0.0141 -0.02778,0.0564 -0.04186,0.0708 l -0.01395,0.0139 c -0.0141,0.0139 -0.01431,0.014 -0.02842,0.0284 -0.02822,0.0283 -0.02812,0.0566 -0.05633,0.0848 l -0.01395,0.0145 -0.01447,0.0145 c -0.02826,0.0564 -0.05602,0.0845 -0.08423,0.11266 l -0.01447,0.0145 -0.01395,0.0145 c -0.02821,0.0283 -0.04207,0.0421 -0.07028,0.0703 -0.0141,0.0139 -0.01431,0.014 -0.02842,0.0284 l -0.01395,0.0145 c -0.01409,0.0141 -0.04222,0.0419 -0.05633,0.0563 -0.0141,0.0138 -0.01431,0.014 -0.02842,0.0284 l -0.01395,0.0145 c -0.02815,0 -0.05669,0.0275 -0.0708,0.0419 -0.0141,0.0139 -0.0138,0.014 -0.02791,0.0284 l -0.01447,0.0145 c -0.01409,0.0138 -0.05617,0.028 -0.07028,0.0424 -0.01412,0.0139 -0.04222,0.0135 -0.05633,0.0279 -0.01409,0.0138 -0.05669,0.028 -0.0708,0.0424 -0.01411,0.0139 -0.04273,0.014 -0.05684,0.0284 -0.02816,0 -0.05651,0.028 -0.08475,0.0279 l -0.01344,0.0145 c 0,0 -0.02829,-2e-5 -0.04238,0.0145 -0.02815,0 -0.05649,0.0285 -0.08475,0.0284 l -0.01395,0.0145 c -0.0141,0.0144 -0.02826,-2e-5 -0.04237,0.0145 -0.04236,0.0138 -0.0704,0.0135 -0.112655,0.0279 l -0.01447,0.0145 c -0.01409,0.0144 -0.02826,4.9e-4 -0.04238,0.015 -0.05631,0 -0.112582,0.0284 -0.168982,0.0284 -0.04237,0.0144 -0.07055,0.0134 -0.0987,0.0134 h -0.0284 c -0.02827,0 -0.04214,0.0144 -0.07028,0.0145 h -0.02842 c -0.01415,-0.0144 -0.02819,-6e-5 -0.05633,0 l -0.04238,0.015 h -0.02842 l -0.01395,0.0145 -0.04237,0.0155 h -0.02842 -0.02791 l -0.01395,0.0145 -0.04237,0.0145 h -0.02842 -0.02791 l -0.01447,0.0139 -0.04237,0.0145 h -0.02791 -0.05633 l -0.04238,0.0145 h -0.08475 -0.02842 -0.02791 c -0.04231,0.77576 -0.113099,1.2128 -0.268201,1.45262 -0.02817,0.0564 -0.08468,0.1131 -0.141077,0.1695 -0.169249,0.16926 -0.408728,0.29601 -0.704866,0.39481 -0.01404,0.0141 -0.01431,0.0419 -0.02842,0.0563 l -0.01395,0.0145 c -0.01407,0.014 -3.58e-4,0.028 -0.01447,0.0424 -6e-5,0.0283 -0.02796,0.0564 -0.02791,0.0847 l -0.01395,0.0145 c 0,0.0277 -3.61e-4,0.0275 -0.01447,0.0419 5e-5,0.0284 -0.02787,0.0565 -0.02791,0.0848 l -0.01447,0.0145 c 0,0.0279 1.48e-4,0.028 -0.01395,0.0424 0,0.028 1.47e-4,0.028 -0.01395,0.0424 0,0.0277 -3.57e-4,0.0275 -0.01447,0.0419 l -0.01395,0.0145 c -0.0141,0.0138 -0.01381,0.014 -0.02791,0.0284 6e-5,0.0281 -0.01431,0.0419 -0.02842,0.0563 l -0.01395,0.0145 c -0.0141,0.0139 -0.01431,0.014 -0.02842,0.0284 -0.01411,0.0141 -0.02827,0.0275 -0.04237,0.0419 l -0.01395,0.0145 c -0.0141,0.0138 -0.01431,0.014 -0.02842,0.0284 -0.0141,0.0139 -0.0138,0.014 -0.02791,0.0284 -0.0141,0.0139 -0.01431,0.0135 -0.02842,0.0279 l -0.01395,0.0145 -0.01395,0.0145 c -0.02823,0.0283 -0.07101,0.0425 -0.09922,0.0708 -0.606489,0.40909 -1.763087,0.35302 -2.976046,0.29662 -0.677016,-0.0288 -1.382029,-0.0573 -1.988509,-0.015 -0.394926,0.0282 -0.761835,0.0564 -1.086239,0.0987 -0.09874,1.59378 -0.02786,3.27238 -0.02791,3.30058 -6e-5,0.0282 -0.01431,0.0698 -0.02842,0.0842 -0.01409,0.0139 -0.01378,0.014 -0.02791,0.0284 -0.04226,0.0141 -0.08496,-1.9e-4 -0.113172,-0.0284 l -0.888318,-0.88834 c -0.01416,-0.0141 -0.02836,-0.028 -0.02842,-0.0563 -1.1e-5,-0.0564 -0.141235,-1.04397 0.112654,-2.28513 -0.874467,0.16923 -1.410398,0.39497 -1.593701,0.66301 -0.01409,0.014 -0.04211,0.0428 -0.07028,0.0429 -0.02816,0 -0.05654,-1.9e-4 -0.08475,-0.0284 l -0.15503,-0.15503 c -0.02821,-0.0282 -0.04253,-0.0711 -0.02842,-0.11317 0.0141,-0.0141 0.183401,-0.43711 0.620634,-0.87436 0.451336,-0.45134 1.043663,-0.7616 1.734778,-0.91674 0.112882,-0.22564 0.22605,-0.4514 0.35295,-0.66301 0.112837,-0.16926 0.239455,-0.32463 0.408761,-0.46561 0,-0.028 -1.47e-4,-0.0285 0.01395,-0.0429 l 0.01447,-0.0419 0.01395,-0.0145 c 0.01404,-0.014 0.01431,-0.0419 0.02842,-0.0563 l 0.01395,-0.0145 c 0.01404,-0.0141 0.0138,-0.0419 0.02791,-0.0563 l 0.01447,-0.0145 c -0.0141,-0.0138 -1.47e-4,-0.0275 0.01395,-0.0419 0.0141,-0.0138 0.01381,-0.014 0.02791,-0.0284 0.140994,-0.22573 0.310303,-0.42296 0.479557,-0.59221 0.832153,-0.83216 2.059647,-1.21297 4.189408,-1.33997 0.05642,0 0.09863,-0.0145 0.15503,-0.0145 l 0.04237,-0.0145 c 0.02814,-7e-5 0.08441,-7e-5 0.112655,0 h 0.02842 c 0.04237,-0.0144 0.09863,-0.0145 0.155029,-0.0145 h 0.02842 c 0.02814,-6e-5 0.08451,3e-5 0.112655,0 h 0.05633 c 0.05642,-1e-5 0.08468,0 0.141077,0 h 0.02842 c 0.05642,0 0.09863,0.0145 0.155029,0.0145 h 0.05684 0.08423 0.02842 l 0.04238,0.0145 c 0.04225,-0.0144 0.08468,-5.2e-4 0.141076,-5.2e-4 h 0.05633 l 0.08475,5.2e-4 0.04238,0.0139 c 0,-0.28206 -0.02864,-0.56405 -0.05684,-0.87436 -0.183356,-2.04512 0.113164,-3.300233 0.931209,-4.005443 0.169254,-0.14104 0.408842,-0.26796 0.690914,-0.38086 0.08463,-0.14103 0.155198,-0.29638 0.239778,-0.40928 l 0.01395,-0.0145 c 0.01404,-0.0423 0.02827,-0.0559 0.04238,-0.0703 0.0282,-0.0282 0.04222,-0.0419 0.05633,-0.0563 l 0.01447,-0.0145 c 0.01409,-0.0141 0.04222,-0.0424 0.05633,-0.0568 0.01409,-0.0141 0.04222,-0.0419 0.05633,-0.0563 0.04234,-0.0423 0.07049,-0.0705 0.0987,-0.0987 0.0141,-0.0138 0.01431,-0.014 0.02842,-0.0284 0.04236,-0.0141 0.05654,-0.0281 0.08475,-0.0563 l 0.01395,-0.0145 0.01395,-0.0139 c 0.04235,-0.014 0.05669,-0.028 0.0708,-0.0424 l 0.01395,-0.0145 c 0.0141,-0.0138 0.01431,-0.014 0.02842,-0.0284 0.04228,-0.0143 0.07029,-0.0419 0.112655,-0.0563 l 0.04237,-0.0145 c 0.01409,-0.014 0.05617,-0.0275 0.07028,-0.0419 0.01412,-0.0144 0.02829,-4e-5 0.04238,-0.0145 0.0282,-0.0278 0.05669,-0.028 0.0708,-0.0424 l 0.04237,-0.0145 c 0.02815,0 0.05596,-0.0279 0.08423,-0.0279 l 0.04238,-0.0145 c 0.02825,1.4e-4 0.07092,-0.014 0.113171,-0.0284 0.04236,-0.0141 0.08436,-0.0275 0.126607,-0.0419 l 0.04237,-0.0145 c 0.0141,-0.0138 0.05651,-0.0285 0.08475,-0.0284 l 0.04238,-0.0145 c 0.0141,-0.0138 0.05651,-0.028 0.08475,-0.0279 l 0.04237,-0.0145 c 0.02825,0 0.07044,-0.0145 0.0987,-0.0145 l 0.04186,-0.0145 c 0.04226,-0.0138 0.09872,-0.014 0.141077,-0.0284 0.04225,-0.0138 0.09872,-0.0135 0.141076,-0.0279 l 0.01395,-0.0145 c 0.141039,-0.50774 0.366717,-0.9594 0.676961,-1.41076 0.141152,-0.19737 0.352502,-0.3806 0.634587,-0.54984 0.01403,-0.0141 0.0143,-0.0419 0.02842,-0.0563 6e-5,-0.0282 0.02795,-0.0565 0.02791,-0.0847 v -0.0284 c 0.01408,-0.0141 3.48e-4,-0.0275 0.01447,-0.0419 l 0.01395,-0.0424 c 0.01415,-0.0141 -1.45e-4,-0.028 0.01395,-0.0424 l 0.01447,-0.0424 c 0.01404,-0.0141 0.0138,-0.0419 0.02791,-0.0563 l 0.01395,-0.0145 c 0,-0.0278 3.58e-4,-0.028 0.01447,-0.0424 0.01404,-0.0141 0.01378,-0.0419 0.02791,-0.0563 0,0 -1.47e-4,-0.0275 0.01395,-0.0419 0.01404,-0.0141 0.01431,-0.0424 0.02842,-0.0568 -0.0141,-0.0141 -1.48e-4,-0.028 0.01395,-0.0424 5e-5,-0.0281 0.0143,-0.0419 0.02842,-0.0563 -4e-5,-0.0282 0.0138,-0.0419 0.02791,-0.0563 5e-5,-0.0281 0.01431,-0.0419 0.02842,-0.0563 -6e-5,-0.0282 0.01431,-0.0419 0.02842,-0.0563 0,0 0.0138,-0.014 0.02791,-0.0284 0.0141,-0.0141 0.02826,-0.028 0.04237,-0.0424 0,0 0.01431,-0.0135 0.02842,-0.0279 0.0141,-0.0141 0.02775,-0.028 0.04186,-0.0424 0.01409,-0.0138 0.0143,-0.014 0.02842,-0.0284 0.0141,-0.0141 0.02827,-0.028 0.04238,-0.0424 l 0.01395,-0.0145 0.01447,-0.0139 c 0,0 0.0138,-0.014 0.02791,-0.0284 l 0.01395,-0.0145 0.01447,-0.0145 c 0.0141,-0.0141 0.02827,-0.028 0.04238,-0.0424 l 0.01395,-0.0145 0.01395,-0.0139 c 0.02822,-0.0281 0.05654,-0.0281 0.08475,-0.0563 0.944988,-0.63469 3.173401,-0.77628 5.148006,-0.91726 l 0.127124,-0.0139 c -0.09873,-1.48096 -0.423063,-2.73633 -0.437183,-2.75073 -0.01404,-0.0423 -0.01426,-0.0705 0.01395,-0.0987 l 0.733805,-0.76171 c 0.02822,-0.0283 0.07035,-0.0423 0.112655,-0.0279 v -0.007 c 0.04241,0.0142 0.0709,0.0424 0.113171,-0.19741 z m 1.299662,4.79403 0.01137,-0.0119 h 0.02842 c 0,0 0.01438,0.0144 0.02842,0 l 0.04186,-0.0145 h 0.05684 0.02791 c 0.02815,-4e-5 0.07046,-0.0145 0.0987,-0.0145 0.02826,8e-5 0.05647,-5e-5 0.08475,0 h 0.02842 0.0279 0.0186 l 0.04289,-0.005 0.0093,-0.01 c 0,0 0.01428,0.0148 0.02842,5.1e-4 h 0.02791 l 0.01447,-0.0145 h 0.02791 0.02842 c 0.01411,-0.0144 0.02828,-1e-5 0.04237,-0.0145 h 0.0083 c 0.06773,-0.0408 0.135822,-0.0821 0.203605,-0.14986 0.26701,-0.26702 0.393418,-0.70169 0.450102,-0.95601 -0.423261,0.19735 -1.269057,0.31033 -2.46755,0.38085 -0.183359,0.0141 -0.395068,0.028 -0.606681,0.0424 l -0.239779,0.0145 c -1.960501,0.12693 -4.160735,0.26788 -5.049304,0.87437 -0.02816,0 -0.05617,0.028 -0.07028,0.0424 l -0.01447,0.0145 c -0.0141,0.0141 -0.02775,0.028 -0.04186,0.0424 l -0.01447,0.0139 -0.01395,0.0145 c -0.01412,0.0141 -0.02826,0.028 -0.04237,0.0424 l -0.02842,0.0284 c -0.0141,0.0138 -0.0138,0.0135 -0.0279,0.0279 -0.0141,0.0138 -0.01431,0.014 -0.02842,0.0284 0,0 -0.0138,0.014 -0.02791,0.0284 -0.0141,0.0138 -0.01431,0.0135 -0.02842,0.0279 0,0 -0.01431,0.014 -0.02842,0.0284 -0.0141,0.0138 -0.0138,0.014 -0.02791,0.0284 0,0 -0.01431,0.0135 -0.02842,0.0279 0.0141,0.014 1.45e-4,0.028 -0.01395,0.0424 0.0141,0.0141 1.47e-4,0.028 -0.01395,0.0424 0.0141,0.014 -3.57e-4,0.0275 -0.01447,0.0419 0.0141,0.0141 1.47e-4,0.028 -0.01395,0.0424 0,0 1.48e-4,0.028 -0.01395,0.0424 0,0 -3.58e-4,0.028 -0.01447,0.0424 -0.01404,0.0141 -0.01381,0.0419 -0.02791,0.0563 l -0.01395,0.0424 c -0.01415,0.0141 -0.01431,0.0419 -0.02842,0.0563 l -0.02842,0.0563 c 0,0 1.48e-4,0.028 -0.01395,0.0424 l -0.02791,0.0563 -0.01447,0.0145 c 0.01411,-0.0137 0.04273,-0.0135 0.05684,-0.0279 l 0.01395,-0.0145 c 0,0 0.02826,-5e-5 0.04237,-0.0145 0.01411,-0.0138 0.04222,-0.014 0.05633,-0.0284 0.01412,-0.0138 0.04221,-0.0135 0.05633,-0.0279 0.04227,-0.0138 0.05651,-0.0285 0.08475,-0.0284 0.08463,-0.0282 0.183064,-0.0705 0.267684,-0.0987 0.08452,-0.0284 0.197533,-0.0566 0.282153,-0.0848 0.09879,-0.0141 0.197345,-0.0559 0.296106,-0.0703 l 0.04238,-0.0145 c 0.02825,0 0.07056,-0.0144 0.0987,-0.0145 l 0.0708,-0.0145 c 0.02826,0 0.07056,-0.0144 0.0987,-0.0145 l 0.0708,-0.0145 c 0.02825,0 0.07055,-0.0144 0.0987,-0.0145 l 0.07028,-0.0139 c 0.02825,0 0.07044,-0.0145 0.0987,-0.0145 0.112842,-0.0282 0.211785,-0.0424 0.310575,-0.0568 0.112834,-0.0282 0.211288,-0.0419 0.310059,-0.0563 0.07052,-0.0141 0.141353,-0.028 0.211873,-0.0424 h 0.02791 c 0.04224,-0.0145 0.08476,-3e-5 0.127124,-0.0145 l 0.775664,-0.0987 0.197404,-0.0284 c 0.112806,-0.0279 0.225758,-0.0275 0.324528,-0.0419 0.126894,-0.0138 0.225647,-0.0284 0.33848,-0.0284 l 0.676962,-0.0563 c 0.253877,-0.0282 0.535868,-0.0286 0.874365,-0.0568 0.183362,-0.0138 0.380957,-0.0135 0.564306,-0.0279 h 0.02842 c 0.155149,-0.0138 0.310049,-0.0285 0.451135,-0.0284 z m -1.512052,-4.26744 -0.535885,0.5643 c 0.07052,0.26798 0.338616,1.41047 0.42323,2.73627 h 0.02842 c 0.09879,-0.0138 0.211298,-0.0135 0.310059,-0.0279 0.02817,0 0.04253,-0.0145 0.0708,-0.0145 -0.04232,-1.39634 -0.226093,-2.76455 -0.296623,-3.2582 z m 16.716291,0.97668 c 0,0 -0.51913,1.01962 -0.87333,1.71566 -0.21134,0.0447 -0.41699,0.11245 -0.61908,0.1943 l -1.69034,-0.93327 -1.47846,1.58905 c 0,0 0.62706,0.96466 1.05213,1.6185 -0.0671,0.20747 -0.11951,0.41748 -0.14883,0.63149 l -1.64848,0.99477 0.63717,2.07481 c 0,0 1.16219,-0.0618 1.93839,-0.10284 0.0711,0.0785 0.13026,0.16471 0.20929,0.23823 0.079,0.0735 0.16878,0.1259 0.25218,0.1912 l 0.0372,1.940973 2.11512,0.48576 0.87333,-1.715663 c 0.21138,-0.0446 0.41749,-0.11205 0.6196,-0.19379 l 1.68982,0.932763 1.47846,-1.589053 -1.05213,-1.6185 c 0.0671,-0.20747 0.11958,-0.41743 0.14883,-0.63149 l 1.64848,-0.99477 -0.63665,-2.07481 -1.9389,0.10284 c -0.0711,-0.0785 -0.12977,-0.16471 -0.20878,-0.23823 -0.0791,-0.0735 -0.16926,-0.12595 -0.2527,-0.1912 l -0.0372,-1.94097 z m 8.90902,3.13211 c 0,0 -0.35612,1.34505 -0.59893,2.26291 -0.23974,0.10717 -0.46704,0.24011 -0.68626,0.38912 l -2.24741,-0.67644 -1.35031,2.26704 c 0,0 0.99199,0.98587 1.6645,1.65417 -0.0267,0.26372 -0.0349,0.52674 -0.015,0.788583 l -1.7048,1.60404 1.28778,2.3027 c 0,0 1.36592,-0.37058 2.27789,-0.61805 0.10458,0.0751 0.19681,0.16228 0.30954,0.22944 0.11273,0.0671 0.23299,0.10653 0.34882,0.16278 l 0.54105,2.29754 2.63808,0.0357 0.59893,-2.26292 c 0.2398,-0.10711 0.46699,-0.23972 0.68627,-0.3886 l 2.24741,0.67593 1.350299,-2.26653 -1.665009,-1.65417 c 0.0266,-0.26373 0.0356,-0.527223 0.0155,-0.789093 l 1.704799,-1.60404 -1.288289,-2.3027 -2.2779,0.61805 c -0.1046,-0.0751 -0.19629,-0.16177 -0.30902,-0.22893 -0.11278,-0.0671 -0.23296,-0.10659 -0.34882,-0.16278 l -0.54105,-2.29753 z m -25.921417,0.50333 c -0.282083,0.0282 -0.521421,0.0419 -0.761194,0.0563 l -0.451652,0.0284 1.071769,1.07177 c 0.07052,-0.35261 0.112877,-0.73338 0.141077,-1.15652 z m 0.499194,0.0202 c -0.02293,0.002 -0.04776,0.005 -0.07596,0.005 -0.01413,0.0144 -0.04204,0.0145 -0.07028,0.0145 -0.05642,2e-5 -0.113099,0 -0.169499,0 -0.01411,0.49365 -0.07024,0.94489 -0.168982,1.35392 l 0.07028,0.0708 c 0.0705,0.0705 0.113007,0.16939 0.08475,0.28215 -0.01417,0.0141 1.45e-4,0.0275 -0.01395,0.0419 l -0.01447,0.0145 -0.01395,0.0145 -0.01395,0.0145 c -0.0141,0.0138 -0.01431,0.014 -0.02842,0.0284 l -0.01395,0.0145 -0.01344,0.0139 c -0.0141,0.0138 -0.01431,0.014 -0.02842,0.0284 -0.0141,0.0138 -0.01431,0.014 -0.02842,0.0284 -0.01412,0.0145 -0.02827,4e-5 -0.04238,0.0145 -0.01409,0.0143 -0.02775,-4.9e-4 -0.04186,0.014 -0.04238,0.0144 -0.07044,0.0145 -0.0987,0.0145 -0.05646,0.14101 -0.11293,0.2824 -0.183451,0.40928 -0.01406,0.0425 -0.04221,0.0705 -0.05633,0.11266 0.239817,-0.0987 0.423038,-0.22558 0.535884,-0.39481 v -0.003 c 0.267992,-0.40903 0.422941,-1.12863 0.451135,-2.08773 -0.02116,-0.007 -0.04218,-0.007 -0.06511,-0.005 z m -2.064473,0.0786 1.452624,1.45262 c 0.01415,0.0141 0.02829,0.028 0.04238,0.0424 h 0.02791 c 0.0141,-0.0141 1.47e-4,-0.0275 -0.01395,-0.0419 l -0.112655,-0.11317 -1.33997,-1.33997 c -0.02827,-4e-5 -0.0282,-4e-5 -0.05633,0 z m -0.310575,0.0284 1.622123,1.6216 c 0.01415,0.0138 0.04221,0.014 0.05633,0.0284 0.02828,5e-5 0.05661,5e-5 0.08475,0 -0.05636,-0.0282 -0.09872,-0.0423 -0.141076,-0.0848 l -1.565796,-1.56527 c -0.02826,-5e-5 -0.02819,-5e-5 -0.05633,0 z m -0.267684,0.0419 -0.761711,0.0847 -0.169499,0.0279 c -0.05642,0 -0.08425,3e-5 -0.126607,0.0145 h -0.02842 l 2.369364,2.36988 5.17e-4,-5.2e-4 c 0.04236,-0.014 0.08425,-0.028 0.126608,-0.0424 0.05642,-0.11283 0.127031,-0.21111 0.183451,-0.32401 0.05643,-0.11284 0.112602,-0.22577 0.168982,-0.3669 0,0 -0.0138,-0.014 -0.02791,-0.0284 z m -1.382345,0.1695 2.369365,2.36988 c 0.01404,0.0144 0.02807,-6e-5 0.05633,0 l -2.369365,-2.36988 c -0.02816,7e-5 -0.02809,7e-5 -0.05633,0 z m -0.268201,0.0424 c -0.01411,0.0144 -0.01423,0.0138 -0.04237,0.0139 l 2.369881,2.36988 c 0.0141,-0.0145 0.04238,-0.0145 0.04238,-0.0145 z m 20.650931,0.002 c 0.33305,-0.012 0.67105,0.10335 0.93431,0.3483 0.52653,0.48987 0.55604,1.31367 0.0662,1.84019 -0.48987,0.52653 -1.31367,0.55606 -1.8402,0.0661 -0.52653,-0.48987 -0.55655,-1.31367 -0.0667,-1.84019 0.24494,-0.26327 0.57336,-0.40244 0.9064,-0.41445 z m -20.941352,0.0899 c -0.0088,0.002 -0.01951,0.005 -0.03359,0.005 l -0.07028,0.0145 c -0.02826,0 -0.07108,0.0144 -0.09922,0.0145 l -0.07028,0.0145 c -0.02825,0 -0.07057,0.0144 -0.0987,0.0145 l -0.0708,0.0145 c -0.02825,0 -0.07052,0.0139 -0.0987,0.0139 l -0.04237,0.0145 c -0.02826,0 -0.0703,0.014 -0.112654,0.0284 l 2.214335,2.21433 v -0.002 c 0.310296,0 0.578473,-0.0144 0.84646,0 l -2.341463,-2.34149 c -0.0071,-0.007 -0.01393,-0.007 -0.02274,-0.005 z m -0.936377,0.20463 c -0.0141,0.0144 -0.02827,4e-5 -0.04237,0.0145 l 2.129586,2.12907 c 0.02814,-6e-5 0.05684,0 0.05684,0 z m -0.268201,0.0703 c -0.0141,0.0145 -0.02826,4e-5 -0.04237,0.0145 l 2.045353,2.04484 c 0.01404,0.0144 0.04222,0.0144 0.05633,0 z m -0.267684,0.12558 c -0.0141,0.0138 -0.04222,0.014 -0.05633,0.0284 -0.01411,0.0138 -0.04273,0.0135 -0.05684,0.0279 l -0.0279,5.2e-4 -0.04238,0.014 c -0.01411,0.0137 -0.04222,0.014 -0.05633,0.0284 -0.02814,0 -0.02827,3e-5 -0.04238,0.0145 l -0.01395,0.0139 -0.01447,0.0145 c -0.02825,0 -0.02827,3e-5 -0.04238,0.0145 -0.02821,0.0279 -0.05617,0.028 -0.07028,0.0424 v -10e-4 c -0.04231,0.18335 -0.09865,0.38067 -0.155029,0.63458 l 1.114144,1.11415 c 0.282089,0 0.578327,0.0145 0.860413,0.0145 0.19746,1e-5 0.381,-0.0144 0.564306,0 z m -29.823502,0.13849 c -1.096462,0.0267 -2.172209,0.23074 -3.213758,0.71004 -2.078698,0.96289 -3.691452,2.14378 -4.591451,4.250383 2.290798,-0.005 4.394383,-0.0424 6.423381,-1.105873 2.028798,-1.0672 3.408276,-1.61915 4.718575,-3.50005 -1.123099,-0.2306 -2.240286,-0.38117 -3.336747,-0.3545 z m 85.038732,0 c -1.09646,-0.0267 -2.21313,0.1239 -3.33623,0.3545 1.3103,1.8809 2.68978,2.43285 4.71858,3.50005 2.02899,1.063503 4.13258,1.100773 6.42338,1.105873 -0.9,-2.106603 -2.51276,-3.287493 -4.59146,-4.250383 -1.04154,-0.4793 -2.11781,-0.68336 -3.21427,-0.71004 z m -55.892708,0.23048 c -0.155148,0.0988 -0.267788,0.21146 -0.310058,0.33848 l 0.01395,-0.0139 0.01447,-0.0145 0.01395,-0.0145 c 0.01403,0.0144 0.02791,0 0.02791,0 l 0.01447,-0.0145 c 0.0141,-0.0145 0.02827,-4e-5 0.04237,-0.0145 0.02816,-6e-5 0.04222,-0.0144 0.05633,0 l 0.01395,0.0145 c 0.01404,0.0143 0.02827,3e-5 0.04237,0.0145 0.02823,-0.11258 0.05615,-0.19701 0.07028,-0.29559 z m -0.141076,0.47801 -0.01395,0.0145 c -0.01405,0.0138 0,0.0284 0,0.0284 l 0.01447,0.0145 1.015442,1.01544 c 0.02814,-6e-5 0.02807,-6e-5 0.05633,0 l -1.00149,-1.00149 -0.05633,-0.0563 v -5.2e-4 z m -0.182935,0.12764 c -0.01406,0.0423 -0.01411,0.0703 0,0.0847 l 0.324011,0.32452 0.536402,0.53589 c 0.02824,4e-5 0.02817,4e-5 0.05633,0 l -0.874365,-0.87437 c -0.01406,-0.0141 -0.02827,-0.0564 -0.04238,-0.0708 z m -0.211873,0.0155 c -0.211572,0.32439 -0.352396,0.66312 -0.451136,0.98753 h 0.02842 c 0.02815,0 0.08425,-4e-5 0.126608,-0.0145 h 0.02842 c 0.04236,-0.0144 0.09863,-0.0145 0.155029,-0.0145 0.01411,-0.0144 0.02828,-4e-5 0.04238,-0.0145 0.05643,0 0.09863,-0.0145 0.155029,-0.0145 l 0.02842,5.2e-4 c 0.07052,-0.0144 0.127051,-0.0145 0.183451,-0.0145 h 0.02791 c 0.0141,-0.15515 0.01416,-0.29619 0.04237,-0.43718 l -0.282153,-0.28216 c -0.01415,-0.0141 -0.02827,-0.028 -0.04238,-0.0424 -0.01413,-0.0141 -0.0138,-0.0419 -0.0279,-0.0563 -0.01415,-0.0141 -0.01451,-0.0142 -0.01447,-0.0424 0,0 -5.2e-5,-0.0279 0,-0.0553 z m 0.536401,0.70383 -5.17e-4,5.2e-4 c -0.01412,0.0705 -0.01411,0.15494 0,0.25373 0.02829,4e-5 0.05661,4e-5 0.08475,0 0.04237,-0.0144 0.09863,-0.0145 0.155029,-0.0145 z m 5.387785,0.22272 c -0.08464,0.0282 -0.183379,0.0419 -0.282153,0.0563 -0.09869,0.0143 -0.225754,0.028 -0.324528,0.0424 -0.324403,0.042 -0.69085,0.0419 -1.128097,0.0563 -0.126927,0.0144 -0.239599,0.0145 -0.352433,0.0145 -0.126949,0.0144 -0.254069,0 -0.366903,0 -0.282081,0 -0.549907,-0.0145 -0.83199,-0.0145 -0.282091,0 -0.592642,-3e-5 -0.888835,-0.0145 -0.141052,-2e-5 -0.254079,0 -0.366903,0 -0.126946,0.0144 -0.239599,0.0144 -0.352433,0.0145 -0.141041,0 -0.267675,0.0145 -0.408761,0.0145 -0.04237,0.0144 -0.09915,0.0145 -0.155546,0.0145 l -0.04237,0.015 c -0.324401,0.0141 -0.62033,0.0279 -0.888318,0.0703 -0.04236,0.0138 -0.08491,0.0285 -0.113172,0.0284 l -0.07028,0.0145 c -0.04225,0.0138 -0.09872,0.0135 -0.141076,0.0279 -0.04231,-0.0138 -0.08487,4e-5 -0.127124,0.0145 l -0.04237,0.0145 c -0.02825,0 -0.07046,0.0145 -0.0987,0.0145 l -0.04238,0.0145 c -0.04226,0.0138 -0.05597,0.028 -0.08423,0.0279 l -0.04237,0.0145 c -0.02816,1.4e-4 -0.0565,0.0285 -0.08475,0.0284 l -0.04237,0.0145 c -0.02825,-1.4e-4 -0.0703,0.0135 -0.112654,0.0279 -0.02821,0.0279 -0.05634,0.028 -0.0987,0.0424 l -0.04237,0.0145 c -0.04226,0.0138 -0.0565,0.0285 -0.08475,0.0284 l -0.04186,0.0139 c -0.01412,0.0138 -0.04221,0.014 -0.05633,0.0284 l -0.04237,0.0145 c -0.02822,0.0279 -0.05617,0.028 -0.07028,0.0424 l -0.04237,0.0145 c -0.02821,0.0282 -0.05654,0.0281 -0.08475,0.0563 -0.02823,0.0282 -0.07049,0.0421 -0.0987,0.0703 l -0.01395,0.0145 -0.01447,0.0145 c -0.04238,0.014 -0.05654,0.0281 -0.08475,0.0563 -0.0141,0.0138 -0.01379,0.014 -0.0279,0.0284 -0.02823,0.0282 -0.05654,0.056 -0.08475,0.0842 -0.02821,0.0282 -0.07049,0.071 -0.0987,0.0992 l -0.08475,-0.0568 0.0708,0.0708 c -0.0282,0.0282 -0.05654,0.0844 -0.08475,0.11266 l -0.01395,0.0145 c -0.02816,0.0565 -0.07092,0.12684 -0.113171,0.1974 h 0.02842 c 0.02815,0 0.05651,-0.028 0.08475,-0.0279 l 0.05633,-0.0284 c 0.0141,-0.0138 0.05661,-0.0279 0.08475,-0.0279 l 0.04186,-0.0145 c 0.05642,0 0.112931,-0.028 0.183451,-0.0424 0.09869,-0.0142 0.197843,-0.0564 0.296623,-0.0708 0.09874,-0.0423 0.197336,-0.0559 0.296106,-0.0703 0.09878,-0.014 0.169258,-0.028 0.239778,-0.0424 l 0.168982,-0.0279 c 0.02825,0 0.07104,-0.0144 0.09922,-0.0145 l 0.296106,-0.0424 c 0.352614,-0.0423 0.733338,-0.0843 1.114144,-0.0987 l 0.676444,-0.0289 c 0.05642,-1e-5 0.112582,0 0.168982,0 h 0.05684 c 0.02814,-4e-5 0.08451,4e-5 0.112655,0 h 0.225826 c 0.05642,0 0.0845,3e-5 0.112655,0 h 0.05633 0.141077 c 0.05643,0 0.09863,0.0145 0.155029,0.0145 h 0.05684 c 0.02827,5e-5 0.0561,4e-5 0.08423,0 h 0.05684 c 0.02828,6e-5 0.05609,4e-5 0.08423,0 h 0.05684 c 0.02828,4e-5 0.05599,-6e-5 0.08423,0 l 0.09457,0.01 c 0.01085,1e-5 0.02169,-1e-5 0.03256,0 l 0.14056,0.017 0.451135,0.0439 c 0.04234,0.0144 0.07052,0.0145 0.0987,0.0145 h 0.05684 c 0.04233,0.0144 0.07043,0.0144 0.0987,0.0145 h 0.05633 c 0.02829,6e-5 0.05649,-6e-5 0.08475,0 h 0.05633 c 0.02829,4e-5 0.05649,-6e-5 0.08475,0 h 0.05633 c 0.02828,6e-5 0.0565,-6e-5 0.08475,0 l 0.04238,-0.014 c 0.02829,4e-5 0.05657,5e-5 0.08475,0 h 0.0279 c 0.02825,0 0.07046,-0.0145 0.0987,-0.0145 0.140998,-1.5e-4 0.267988,-0.0142 0.380856,-0.0424 0.02826,0 0.07046,-0.0145 0.0987,-0.0145 l 0.04237,-0.0145 c 0.02814,-1.4e-4 0.05651,-0.028 0.08475,-0.0279 l 0.01395,-0.0145 c 0.01406,0.0143 0.02842,0 0.02842,0 0.02825,0 0.05661,-0.0284 0.08475,-0.0284 l 0.01395,-0.0145 c 0.02825,0 0.02827,-4e-5 0.04237,-0.0145 0.02815,0 0.07064,-0.0135 0.08475,-0.0279 l 0.01395,-0.0145 c 0.02825,0 0.02827,-3e-5 0.04238,-0.0145 0.0141,-0.0141 0.05617,-0.028 0.07028,-0.0424 0.02826,0 0.04222,-0.014 0.05633,-0.0284 0.01409,-0.0141 0.05669,-0.0275 0.0708,-0.0419 0.02826,0 0.04222,-0.014 0.05633,-0.0284 0.02825,1.5e-4 0.05668,-0.028 0.0708,-0.0424 0.0141,-0.0141 0.02827,-0.028 0.04237,-0.0424 0.0141,-0.0141 0.02812,-0.0281 0.05633,-0.0563 0.0141,-0.0141 0.02826,-0.028 0.04237,-0.0424 0.02822,-0.0282 0.04207,-0.0421 0.07028,-0.0703 0.01409,-0.0138 0.0143,-0.014 0.02842,-0.0284 l 0.01395,-0.015 c 0.02822,-0.0282 0.04207,-0.0421 0.07028,-0.0703 0.0141,-0.0141 0.02826,-0.028 0.04237,-0.0424 0.02822,-0.0282 0.04259,-0.0426 0.0708,-0.0708 0.0141,-0.0141 0.02827,-0.028 0.04238,-0.0424 l 0.01395,-0.0145 v -0.002 c 0.0141,-0.0141 0.01427,-0.0139 0.08475,-0.11265 z m -55.5940227,0.48473 c 0.0038,2.2931 0.639879,5.492183 2.083077,7.273973 1.446299,1.777 3.451211,3.51676 5.690609,3.99976 -0.4406,-2.248 -1.242442,-4.84337 -2.596741,-6.69106 -1.357998,-1.8468 -3.069447,-3.680773 -5.176945,-4.582673 z m 127.1586387,0 c -2.10749,0.9019 -3.81894,2.735873 -5.17694,4.582673 -1.3543,1.84769 -2.15614,4.44306 -2.59674,6.69106 2.2394,-0.483 4.24379,-2.22276 5.69009,-3.99976 1.4432,-1.78179 2.07959,-4.980873 2.08359,-7.273973 z m -77.305351,0.68781 c -0.02828,0 -0.07043,0.0145 -0.0987,0.0145 -0.02829,-4e-5 -0.05657,-5e-5 -0.08475,0 -0.05641,0 -0.140837,4e-5 -0.211357,0.0145 h -0.02842 c -0.08458,0 -0.169041,0.0279 -0.253731,0.0279 -0.02828,0 -0.04213,0.0144 -0.07028,0.0145 -0.04224,0.0145 -0.08476,3e-5 -0.127124,0.0145 -0.01411,0.23977 -0.01411,0.49395 0,0.79014 l 0.860412,0.86041 c 0.01409,-0.23978 0.0138,-0.46562 0.02791,-0.70539 l 5.16e-4,-0.002 c 0.02819,-0.33834 0.0278,-0.67645 -0.01447,-1.02887 z m -1.071769,0.11369 -0.168982,0.0284 c -0.02826,0 -0.07095,0.0145 -0.09922,0.0145 l -0.168982,0.0279 h -0.02842 l 0.479557,0.47956 c -0.01411,-0.18336 -0.01396,-0.3811 -0.01395,-0.55036 z m -0.733289,0.11317 c -0.01409,0.0144 -0.02829,4e-5 -0.04237,0.0145 l 1.663981,1.66398 c 0.0141,0.0138 0.01431,0.014 0.02842,0.0284 h 0.02842 c 0.0141,-0.0141 -3.57e-4,-0.028 -0.01447,-0.0424 l -0.888318,-0.88886 z m -0.296622,0.0703 c -0.01412,0.0145 -0.02827,4e-5 -0.04238,0.0145 l 1.298112,1.2976 0.479557,0.479553 c 0.04226,0.0426 0.09831,0.0423 0.14056,0.0279 -0.04211,-0.0142 -0.07033,-0.0427 -0.126607,-0.0708 z m 35.906335,0.005 c 0.25507,0.0101 0.51148,0.0824 0.74621,0.22221 0.75112,0.44745 0.99729,1.41876 0.54983,2.169893 -0.44738,0.75113 -1.41928,0.9978 -2.17041,0.55036 -0.75107,-0.44745 -0.99728,-1.419303 -0.54983,-2.170413 0.30762,-0.51641 0.86304,-0.7943 1.4242,-0.77205 z m -36.174019,0.008 c -0.04236,0.014 -0.08487,0.028 -0.127124,0.0424 l -0.04237,0.0139 c -0.02825,0 -0.0566,0.0284 -0.08475,0.0284 l -0.05633,0.0279 c -0.02815,0 -0.05651,0.0285 -0.08475,0.0284 l -0.05633,0.0284 c -0.02815,0 -0.05596,0.0279 -0.08423,0.0279 l -0.01447,0.0145 -0.04186,0.0145 -0.01447,0.0145 c -0.01415,-0.0145 -0.0279,0 -0.0279,0 v -0.001 c -0.01405,0.0425 -0.04238,0.0987 -0.04238,0.0987 0.01415,0.0141 0.02826,0.028 0.04238,0.0424 l 2.059306,2.059833 c -0.0141,-0.35261 -0.02863,-0.70607 -0.05684,-1.072813 z m -1.156519,0.53692 c -0.04232,0.0423 -0.08481,0.0564 -0.127124,0.0987 -0.6488,0.56415 -0.959217,1.551483 -0.902787,3.074753 0.01412,-0.0138 0.04222,-0.0135 0.05633,-0.0279 0.01411,-0.0138 0.04276,-0.014 0.05684,-0.0284 0.112835,-0.0282 0.225439,1.3e-4 0.310059,0.0847 l 0.394808,0.3948 c 0.01409,-0.55007 0.02864,-1.01532 0.05684,-1.41024 l -0.437178,-0.4373 c -0.126924,-0.12694 -0.127078,-0.35306 0.01395,-0.49403 0.0141,-0.0141 0.02828,-0.028 0.04237,-0.0424 0.01413,-0.0138 0.02816,-0.0278 0.05633,-0.0279 v 0.002 c 0.05647,-0.0282 0.09867,-0.0428 0.197404,-0.0284 0.08462,0 0.169426,0.0283 0.225826,0.0847 l 0.0279,0.0279 c 0.02821,-0.310303 0.0847,-0.564123 0.141077,-0.818033 l -0.05633,-0.0563 c -0.01405,-0.014 -0.02826,-0.0275 -0.04237,-0.0419 l -0.01395,-0.0145 c 0,-0.0279 1.48e-4,-0.028 -0.01395,-0.0424 l -0.01447,-0.0145 c -0.01415,-0.0141 1.48e-4,-0.028 -0.01395,-0.0424 0.01405,-0.0138 0,-0.0284 0,-0.0284 -0.01415,-0.0141 -0.01399,-0.0142 -0.01395,-0.0424 v -0.0279 c -0.01411,-0.0141 4e-5,-0.0281 0,-0.0563 l 0.01395,-0.0145 c 0,0 -1.48e-4,-0.028 0.01395,-0.0424 l 0.01395,-0.0145 z m 0.281637,0.0274 0.01447,0.0145 0.01395,0.0145 2.848921,2.848923 c 0.0141,0.0138 0.01431,0.014 0.02842,0.0284 h 0.02842 c 0.0141,-0.0141 -3.58e-4,-0.028 -0.01447,-0.0424 L 46.948,101.15459 44.733665,98.939737 c -0.01415,-0.0138 -0.02815,-0.0285 -0.05633,-0.0284 z m -0.168982,0.11421 c -0.01407,0.0423 2.2e-4,0.0844 0.02842,0.11265 l 0.0987,0.0987 2.454113,2.454113 0.282154,0.28216 c 0.04226,0.0426 0.09872,0.0428 0.141076,0.0284 -0.04223,-0.014 -0.0703,-0.0425 -0.112654,-0.0847 l -2.849439,-2.848923 c -0.01415,-0.0141 -0.02827,-0.028 -0.04237,-0.0424 z m 0.127124,0.49299 c -0.05641,0.25388 -0.09877,0.521843 -0.141077,0.818043 l 2.355412,2.35541 c 0.02821,-0.3103 0.05617,-0.62034 0.07028,-0.88832 z m 2.482019,0.47956 c 0.02821,0.338503 0.04253,0.691033 0.02842,1.015443 v 0.0279 l 0.578259,0.57826 c 0.0141,0.0138 0.01431,0.014 0.02842,0.0284 l 0.01395,0.0145 c 0.0141,0.0138 0.01431,0.0135 0.02842,0.0279 0.0564,-0.42301 0.0987,-0.91665 0.0987,-1.42421 -0.0141,0.0138 -0.01431,0.014 -0.02842,0.0284 -0.0141,0.0138 -0.01431,0.0135 -0.02842,0.0279 -0.02825,0 -0.02827,4e-5 -0.04238,0.0145 -0.0141,0.0138 -0.02791,0.0284 -0.02791,0.0284 -0.01407,0.0143 -0.02828,-3.8e-4 -0.04237,0.0139 -0.01413,-0.0145 -0.02842,0 -0.02842,0 h -0.0279 -0.02842 -0.02791 -0.02842 c -0.01406,-0.0144 -0.02776,-3e-5 -0.04186,-0.0145 -0.01403,0.0144 -0.02842,0 -0.02842,0 -0.02821,0 -0.02775,-3e-5 -0.04186,-0.0145 l -0.01447,-0.0139 c -0.01404,-0.014 -0.02827,-0.028 -0.04237,-0.0424 z m 25.82375,0.182933 c 0,0 -0.86068,1.17909 -1.44798,1.98386 -0.27523,0.0134 -0.54847,0.0568 -0.81959,0.11885 l -1.9389,-1.51773 -2.18436,1.70119 c 0,0 0.59415,1.34178 0.99684,2.25154 -0.12658,0.24766 -0.2354,0.50175 -0.31574,0.76533 l -2.2779,0.91829 0.38086,2.74246 c 0,0 1.47699,0.15833 2.46289,0.26407 0.0736,0.11332 0.13036,0.23346 0.21498,0.3421 0.0846,0.10863 0.18726,0.19282 0.27905,0.29197 l -0.34675,2.45256 2.56522,1.04077 1.44797,-1.98386 c 0.27528,-0.0133 0.54847,-0.0568 0.81959,-0.11886 l 1.9389,1.51774 2.18436,-1.70119 -0.99683,-2.25154 c 0.12659,-0.24767 0.23543,-0.5017 0.31574,-0.76533 l 2.2779,-0.91829 -0.38086,-2.74247 -2.4629,-0.26406 c -0.0736,-0.11331 -0.13036,-0.23347 -0.21497,-0.3421 -0.0846,-0.10863 -0.1872,-0.19286 -0.27905,-0.29197 l 0.34674,-2.45257 z m -28.870076,0.0987 0.01395,0.0145 0.01395,0.0145 2.849439,2.84892 c 0.0141,0.0138 0.01379,0.014 0.0279,0.0284 h 0.02842 c 0.0141,-0.0142 1.48e-4,-0.028 -0.01395,-0.0424 l -0.141067,-0.14119 -2.538863,-2.53886 -0.15503,-0.15606 c -0.02822,-0.0282 -0.05648,-0.0279 -0.08475,-0.0279 z m -0.183451,0.0992 c -0.01408,0.0423 2.2e-4,0.0844 0.02842,0.11266 l 0.465088,0.4656 2.383833,2.38383 c 0.01415,0.0138 0.04222,0.0135 0.05633,0.0279 0.02825,0 0.05654,3.1e-4 0.08475,-0.0279 -0.04232,-0.0142 -0.08476,-0.0284 -0.127124,-0.0708 l -2.848922,-2.84892 c -0.01415,-0.0141 -0.02828,-0.028 -0.04237,-0.0424 z m 0.550354,0.88884 c -0.02822,0.3949 -0.04222,0.86016 -0.05633,1.41024 l 1.100192,1.1002 c 0.380814,-0.0141 0.704884,-0.0565 0.98702,-0.14108 0.05636,-0.0282 0.126981,-0.0421 0.183451,-0.0703 -4e-5,-0.0282 0.01431,-0.0424 0.02842,-0.0568 0,0 -0.01431,-0.0135 -0.02842,-0.0279 z m -24.17992,0.60306 c -2.293097,0.004 -4.499885,0.33535 -6.349483,1.69085 -1.844298,1.3594 -3.172491,2.86457 -3.655591,5.10357 2.248098,-0.44 4.29375,-0.92117 6.074048,-2.36317 1.779098,-1.445 3.029227,-2.32385 3.931026,-4.43125 z m 82.778919,0 c 0.9018,2.1074 2.15142,2.98625 3.93051,4.43125 1.7803,1.442 3.82647,1.92317 6.07457,2.36317 -0.4831,-2.239 -1.81129,-3.74417 -3.65559,-5.10357 -1.8496,-1.3555 -4.05639,-1.68715 -6.34949,-1.69085 z m -55.933529,0.11524 c -0.01409,0.26799 -0.04244,0.57817 -0.08475,0.87436 l 0.0987,0.0992 c 0.01415,0.0142 0.02827,0.028 0.04237,0.0424 l 0.01447,0.0139 c 0.01416,0.0141 0.0138,0.0425 0.0279,0.0568 0.01405,0.0142 3.64e-4,0.028 0.01447,0.0424 l 0.01395,0.0145 c -4e-5,0.0282 -4e-5,0.0281 0,0.0563 0.253881,-0.25387 0.40888,-0.57858 0.49351,-1.02991 v -5.2e-4 c 0.0141,-0.0141 0.01403,-0.0424 -0.04238,-0.0424 -0.0141,0.0141 -0.02826,0.028 -0.04237,0.0424 -0.01412,0.0138 -0.04222,0.0135 -0.05633,0.0279 0,0 -0.02827,4e-5 -0.04237,0.0145 l -0.01395,0.0145 c -0.02816,5e-5 -0.02809,5e-5 -0.05633,0 h -0.02842 c -0.02812,2e-5 -0.04222,0.0144 -0.05633,0 l -0.01395,-0.0145 c 0,0 -0.02827,-3e-5 -0.04237,-0.0145 -0.01416,-0.0138 -0.04273,-0.0135 -0.05684,-0.0279 -0.01415,-0.0141 -0.02775,-0.028 -0.04186,-0.0424 z m -3.568258,0.21187 0.01395,0.0145 0.01447,0.0145 1.551327,1.55133 v -10e-4 c 0.02827,0 0.02799,4e-5 0.07028,0.0145 l -0.98702,-0.98702 -0.578259,-0.57826 c -0.02822,-0.0282 -0.05651,-0.0284 -0.08475,-0.0284 z m -0.155029,0.12753 c -0.01407,0.0423 2.2e-4,0.0849 0.02842,0.11318 l 0.91674,0.91673 0.01395,-0.0139 0.42323,0.42272 c 0.0141,-0.0144 0.02807,-5e-5 0.05633,0 l -1.396297,-1.3963 c -0.01415,-0.0141 -0.02828,-0.028 -0.04237,-0.0424 z m -0.02842,0.339 c 0.014,0.0422 6.42e-4,0.0839 0.01447,0.12609 v 5.2e-4 c 0.02818,0.31012 0.0421,0.60663 0.07028,0.91674 0.02827,5e-5 0.0282,5e-5 0.05633,0 0.09874,0.0144 0.183516,0.0139 0.2682,0.0139 0.126934,0.0139 0.267927,0.014 0.394808,0.0284 v -0.28215 z m 1.001489,1.00149 v 0.0842 c 0.02827,6e-5 0.05661,4e-5 0.08475,0 z m 2.152841,0.18604 c -0.0088,-0.005 -0.03019,-0.005 -0.07958,0.002 l -0.01395,0.0145 c -0.296181,0.0988 -0.649011,0.14063 -1.086238,0.15503 -0.112841,0 -0.239601,0.0145 -0.352434,0.0145 -0.112832,0 -0.239914,0.0144 -0.366902,0 -0.126938,-0.0139 -0.281883,-0.0284 -0.451136,-0.0284 -0.16924,0 -0.324573,-0.014 -0.507979,-0.0284 -0.126926,-0.0138 -0.253823,-0.0279 -0.394808,-0.0279 l -0.310058,-0.0284 h -0.141077 l -0.211873,-0.0145 c -0.04237,0.0143 -0.08468,0 -0.141077,0 h -0.02842 -0.141077 -0.05633 c -0.02814,5e-5 -0.08441,7e-5 -0.112655,0 h -0.02842 c -0.02815,3e-5 -0.08416,0 -0.14056,0 h -0.02842 c -0.02814,7e-5 -0.08503,-3e-5 -0.113171,0 l -0.04237,0.0145 c -0.05642,0 -0.09863,0.014 -0.155029,0.014 -2.087435,0.11284 -3.257966,0.4938 -4.047815,1.28364 -0.15515,0.15514 -0.296141,0.35289 -0.437183,0.55035 0.01409,-0.014 0.05617,-0.028 0.07028,-0.0424 0.07047,-0.0424 0.155159,-0.0988 0.239779,-0.12712 0.211566,-0.0987 0.465779,-0.18333 0.733805,-0.25373 0.09878,-0.0142 0.197436,-0.0564 0.296106,-0.0708 0.09874,-0.0423 0.197336,-0.0559 0.296106,-0.0703 0.296184,-0.0422 0.62045,-0.0848 0.973067,-0.12713 0.08462,0 0.18352,-0.0145 0.268201,-0.0145 0.126906,-0.0138 0.225635,-0.0279 0.338481,-0.0279 0.296189,-0.0141 0.620467,-0.028 0.973067,-0.0424 0.126935,-0.0144 0.240117,-0.0145 0.35295,-0.0145 0.126948,-0.0144 0.239598,-0.0145 0.352433,-0.0145 0.296187,-0.0144 0.606234,-0.0145 0.888318,-0.0145 0.141049,0 0.282138,-5e-5 0.42323,0 0.366726,0 0.634738,-0.0139 0.860413,-0.0139 l 0.01447,-0.0145 c 0.0423,0.0144 0.08451,3e-5 0.112655,0 l 0.578259,-0.0424 0.0987,-0.015 c 0.01404,0.0144 0.02809,-5e-5 0.05633,0 h 0.02842 c 0.02829,5e-5 0.05661,4e-5 0.08475,0 0.05637,-0.0279 0.112669,-0.0285 0.155029,-0.0429 0.01406,0.0143 0.02842,0 0.02842,0 h 0.02791 c 0.0141,-0.0139 0.05661,-0.0279 0.08475,-0.0279 0.01412,-0.0145 0.02827,-5.1e-4 0.04237,-0.015 l 0.01395,-0.0145 c 0.02815,0 0.05649,-0.028 0.08475,-0.0279 0.0141,-0.0144 0.02826,3e-5 0.04238,-0.0145 l 0.01395,-0.0145 c 0.0282,-0.0277 0.05617,-0.028 0.07028,-0.0424 0.01411,-0.0139 0.04273,-0.0135 0.05684,-0.0279 0.02823,-0.028 0.05617,-0.028 0.07028,-0.0424 0.02826,0 0.04222,-0.014 0.05633,-0.0284 0.04226,-0.014 0.05668,-0.028 0.0708,-0.0424 0.0141,-0.014 0.02827,-0.0285 0.04237,-0.0429 0.02819,-0.0281 0.04221,-0.0414 0.05633,-0.0558 l 0.01395,-0.015 c 0.0141,-0.0139 0.01431,-0.0135 0.02842,-0.0279 0.01411,-0.014 0.04222,-0.0419 0.05633,-0.0563 l 0.01395,-0.015 0.01395,-0.0145 c 0.01409,-0.0142 0.04273,-0.0419 0.05684,-0.0563 l 0.01395,-0.0145 0.01395,-0.0139 c 0.0282,-0.0282 0.04259,-0.0705 0.0708,-0.0987 l 0.01395,-0.0145 c 0.02822,-0.0283 0.02812,-0.0565 0.05633,-0.0848 l 0.01395,-0.0145 0.01447,-0.0145 c 0.01409,-0.0141 0.02827,-0.0559 0.04237,-0.0703 0,0 8.02e-4,-0.026 0.01344,-0.0408 5.38e-4,-0.011 0.0018,-0.0198 -0.0046,-0.0248 z m -2.547649,1.19475 c -0.04237,0.0144 -0.09863,0.0145 -0.155029,0.0145 -0.05641,2e-5 -0.113099,0 -0.169499,0 -0.05642,0 -0.127051,0.0145 -0.183451,0.0145 0,0.45134 -0.01386,0.83196 -0.07028,1.17048 -0.02822,0.11284 -0.04222,0.21178 -0.05633,0.31057 -0.02821,0.0846 -0.02863,0.16913 -0.05684,0.25373 0.01407,0.0139 0,0.0284 0,0.0284 0.282079,-0.11283 0.493845,-0.26793 0.606681,-0.43718 v -5.2e-4 c 0.169273,-0.25386 0.225831,-0.84667 0.225826,-1.35444 z m -1.348754,0.0372 v 5.2e-4 c -0.107548,0.002 -0.216858,0.005 -0.329696,0.005 l 0.91674,0.91726 c 0.04231,-0.268 0.04237,-0.57876 0.04237,-0.91726 -0.08463,0 -0.197741,5e-4 -0.310575,5.2e-4 -0.105776,-0.007 -0.211301,-0.007 -0.318843,-0.006 z m -1.021127,0.0202 1.523421,1.52343 c 0,0 6e-5,-0.0285 0,-0.0568 l -1.466577,-1.46658 c -0.02823,-6e-5 -0.02867,-6e-5 -0.05684,0 z m 0.338481,0 1.227315,1.2268 c 0.01411,-0.0141 0.01411,-0.0419 0,-0.0563 l -1.170471,-1.17047 c -0.02827,-5e-5 -0.02871,-5e-5 -0.05684,0 z m -0.634587,0.0145 c -0.225667,0 -0.465352,0.014 -0.676961,0.0284 l 1.861902,1.86191 h 0.02842 0.02791 c 0.02816,0 0.08476,2e-5 0.127124,-0.0145 h 0.02791 c 0.04235,-0.0139 0.07081,-0.014 0.113172,-0.0284 h 0.0279 c 0.04227,-0.0139 0.07091,-0.014 0.113172,-0.0284 l 0.02842,5.1e-4 c 0.02816,0 0.04255,-0.0145 0.0708,-0.0145 1.41e-4,-0.0278 0.01401,-0.0422 0,-0.0842 -0.02827,0 -0.05654,-0.028 -0.08475,-0.0563 z m -1.001489,0.0698 1.875855,1.87638 h 0.05684 l -1.87637,-1.87637 c -0.02814,6e-5 -0.02807,6e-5 -0.05633,0 z m 31.480247,0.0103 c 0.47849,0.0135 0.94794,0.23261 1.26504,0.63976 0.56375,0.72379 0.4339,1.76736 -0.2899,2.33112 -0.7238,0.56374 -1.76791,0.43389 -2.33164,-0.2899 -0.56375,-0.7238 -0.43389,-1.76738 0.2899,-2.33113 0.31666,-0.24664 0.69445,-0.36036 1.0666,-0.34985 z m -31.804258,0.005 1.875854,1.87586 h 0.05633 l -1.875855,-1.87586 c -0.02814,5e-5 -0.02807,5e-5 -0.05633,0 z m -0.254248,0.0289 c -0.239777,0.014 -0.465399,0.0419 -0.676962,0.0842 l 1.777153,1.77716 c 0.04229,0.0143 0.0708,0.0145 0.0708,0.0145 h 0.05633 0.168982 0.05633 c 0.05641,-2e-5 0.08519,0 0.141594,0 h 0.02791 c 0.04236,-0.0144 0.09915,-0.0139 0.155546,-0.0139 h 0.05633 l -1.7632,-1.7632 c -0.02821,-0.0281 -0.05669,-0.0564 -0.0708,-0.0987 z m -0.945162,0.12661 c -0.01411,0.0143 -0.02775,-3.9e-4 -0.04186,0.0139 l 1.720825,1.72083 0.04186,-0.0145 z m -0.267684,0.0698 c -0.01409,0.0144 -0.02827,-2e-5 -0.04237,0.0145 l 1.636076,1.63608 h 0.05684 z m -0.296106,0.0713 c -0.183316,0.0424 -0.352789,0.0986 -0.507979,0.16898 l 1.368392,1.3684 0.704866,0.0279 z m -0.705383,0.25322 c -0.0141,0.0145 -0.02826,-3e-5 -0.04237,0.0145 l 1.241268,1.24126 0.0708,0.0139 z m -0.246497,0.13746 v 5.1e-4 c -0.0071,0.004 -0.01413,0.0104 -0.02119,0.0176 l 1.114144,1.11415 c 0.01411,-0.0144 0.02808,-6e-5 0.05633,0 l -1.128097,-1.12913 c -0.0071,-0.007 -0.01413,-0.007 -0.02119,-0.003 z m -0.190686,0.13125 c -0.04226,0.0141 -0.07063,0.0419 -0.08475,0.0563 -0.08456,0.2256 -0.154971,0.5213 -0.211357,0.88781 h 0.338481 0.169498 0.02791 c 0.05642,-10e-6 0.113098,0 0.169498,0 h 0.02791 0.169498 0.02791 c 0.05641,0 0.127051,0.0145 0.183451,0.0145 h 0.02842 c 0.04231,0.0144 0.08428,-3e-5 0.126607,0.0145 z m -0.394808,0.36639 c -0.04231,0.0424 -0.07045,0.0708 -0.0987,0.12712 v 5.2e-4 c -0.09878,0.15511 -0.183413,0.32433 -0.282153,0.53588 h 0.02842 c 0.07052,-0.0138 0.154779,-0.014 0.225309,-0.0284 l 0.01447,-0.0145 c 0.02822,-0.22566 0.07038,-0.43722 0.112655,-0.62063 z m 6.318477,0.70642 c -0.01434,0.0138 -0.05613,0.0285 -0.08423,0.0284 h -0.02791 c -0.04236,0.0138 -0.0709,0.014 -0.113172,0.0284 h -0.0279 c -0.02816,0 -0.08487,-3.9e-4 -0.127124,0.014 h -0.02842 c -0.02827,-5e-5 -0.05608,-4e-5 -0.08423,0 l -0.0708,0.0145 c -0.04226,0.0139 -0.08468,0.0284 -0.141077,0.0284 l -0.183451,0.0145 c -0.05642,0 -0.09863,0.0145 -0.15503,0.0145 l -0.211356,0.014 h -0.141077 -0.05684 c -0.04236,0.0144 -0.09863,0.0145 -0.155029,0.0145 h -0.02842 -0.141077 -0.05633 -0.168982 -0.05633 -0.141076 -0.05684 c -0.05642,1e-5 -0.112582,0 -0.168982,0 h -0.253732 c -0.05641,1e-5 -0.08468,0 -0.141076,0 l -0.77618,-0.0424 -0.408761,-0.0145 c -0.239775,-0.0139 -0.465604,-0.014 -0.705383,-0.0284 l -0.211357,-0.0139 c -0.07042,0.0144 -0.141004,0 -0.197404,0 h -0.02842 c -0.07057,-0.0144 -0.127051,-0.0145 -0.183451,-0.0145 h -0.02739 c -0.05642,1e-5 -0.113098,0 -0.169498,0 h -0.02791 c -0.05642,2e-5 -0.113098,0 -0.169498,0 h -0.02791 -0.169498 c -0.155134,0.0139 -0.295943,0.014 -0.451135,0.0284 -0.126946,0.014 -0.253926,0.028 -0.380856,0.0424 -0.04232,-0.0139 -0.08487,-2e-5 -0.127124,0.0145 -0.662908,0.15514 -1.227111,0.43696 -1.67845,0.88831 -0.324395,0.32441 -0.479308,0.62088 -0.549838,0.74776 l 0.01344,0.0145 c 0.282082,-0.31029 0.860218,-0.52219 1.791105,-0.69143 0.225674,-0.0564 0.494096,-0.0988 0.77618,-0.12712 0.352605,-0.0423 0.761285,-0.0844 1.184424,-0.11266 0.620588,-0.0562 1.339927,-0.0138 2.016931,0.0145 1.184771,0.0564 2.299375,0.1271 2.849439,-0.25373 0.04227,-0.0141 0.05602,-0.0286 0.08423,-0.0568 l 0.01447,-0.0139 0.01395,-0.0145 c 0.0141,-0.014 0.02827,-0.028 0.04237,-0.0424 l 0.01395,-0.0145 0.01395,-0.0145 c 0.0141,-0.0141 0.02827,-0.028 0.04238,-0.0424 l 0.01447,-0.0145 0.01395,-0.015 c 5e-5,-0.0281 0.01431,-0.0414 0.02842,-0.0558 l 0.01395,-0.015 0.01395,-0.0139 c 0.02813,-0.0283 0.02829,-0.0564 0.04237,-0.0708 l 0.01395,-0.0145 0.01447,-0.015 c 0.01409,-0.0142 0.04192,-0.0421 0.04186,-0.0703 0,0 0.01443,-0.0141 0.01447,-0.0424 v 0.001 c 0.01397,-0.014 0.0279,-0.029 0.04186,-0.0977 z m -6.699332,1.22576 c -0.04226,0.0139 -0.09872,0.0135 -0.141077,0.0279 h -0.02842 c -0.05643,0 -0.112582,0.0284 -0.168982,0.0284 -0.01411,0.0143 -0.02827,-2e-5 -0.04238,0.0145 -0.02822,0.0282 -0.0566,0.0279 -0.08475,0.0279 -0.225659,1.12834 -0.126769,2.0733 -0.112655,2.25671 l 0.676962,0.67696 c -0.0282,-0.53595 -0.05658,-1.80529 0.01395,-3.03237 -0.02826,-5e-5 -0.02819,-5e-5 -0.05633,0 -0.02816,5e-5 -0.02809,5e-5 -0.05633,0 z m -39.557792,0.21601 c 0.4396993,2.251 1.6855163,5.2051 3.4313153,6.6921 1.747898,1.481 4.061436,2.79262 6.351033,2.87062 -0.833099,-2.134 -2.145874,-4.50381 -3.821472,-6.06681 -1.679098,-1.56 -3.720379,-3.01091 -5.9608763,-3.49591 z m 129.839613,0 c -2.2405,0.485 -4.28178,1.93591 -5.96088,3.49591 -1.67559,1.563 -2.98837,3.93281 -3.82147,6.06681 2.2896,-0.078 4.60314,-1.38962 6.35104,-2.87062 1.74579,-1.487 2.99161,-4.4411 3.43131,-6.6921 z m -107.195003,0.22063 c -2.250598,0.439 -4.339717,1.2081 -5.903515,2.88509 -1.558099,1.679 -2.532777,3.42539 -2.610177,5.71438 2.134098,-0.83299 4.024443,-1.70333 5.509741,-3.44733 1.483599,-1.748 2.519252,-2.91214 3.003951,-5.15214 z m 84.549873,0 c 0.4847,2.24 1.52087,3.40414 3.00447,5.15214 1.4853,1.744 3.37564,2.61434 5.50974,3.44733 -0.0774,-2.28899 -1.05259,-4.03538 -2.61069,-5.71438 -1.5638,-1.67699 -3.65292,-2.44609 -5.90352,-2.88509 z m -84.072899,7.06934 c -2.136598,0.83299 -4.031399,1.97398 -5.277198,3.89898 -1.239598,1.927 -1.823918,3.80974 -1.511018,6.07973 1.961398,-1.18399 3.626973,-2.65578 4.703072,-4.67878 1.073699,-2.025 2.006344,-3.00894 2.085144,-5.29993 z m 83.595929,0 c 0.0788,2.29099 1.01196,3.27493 2.08566,5.29993 1.0761,2.023 2.74167,3.49479 4.70307,4.67878 0.3129,-2.26999 -0.27142,-4.15273 -1.51102,-6.07973 -1.2458,-1.925 -3.14111,-3.06599 -5.27771,-3.89898 z m -57.110207,2.58433 v 1.20872 h 13.561962 v -1.20872 z m 25.525061,0.12661 c 1.80194,0.001 1.68661,0.0142 1.80092,0.0775 0.13849,0.0752 0.22607,0.22797 0.24908,0.43512 0.009,0.0752 0.0117,0.34983 0.008,0.82475 -0.004,0.61738 -0.007,0.7215 -0.0233,0.786 -0.0415,0.15831 -0.12683,0.27588 -0.2434,0.33538 -0.0346,0.0172 -0.11106,0.0418 -0.17105,0.0527 -0.0589,0.0119 -0.14086,0.0325 -0.18242,0.0434 -0.0658,0.019 -0.19482,0.0239 -1.08468,0.0289 -0.93952,0.007 -1.01359,0.008 -1.05627,0.0305 -0.12125,0.062 -0.12581,0.0803 -0.20774,0.83354 -0.0508,0.46308 -0.10487,1.07392 -0.14986,1.68207 -0.003,0.0395 -0.009,0.10843 -0.0119,0.15193 -7.3e-4,0.0109 -0.006,0.10097 -0.007,0.12712 0.13825,-0.002 0.27249,-0.003 0.40256,-0.003 1.50028,0.0207 2.3591,0.22453 2.46238,0.58446 0.12208,0.4487 -0.93118,1.10842 -2.94866,1.84692 -8.6e-4,0.25637 1.2e-4,0.48891 0.007,0.63665 0.015,0.32585 0.058,0.63169 0.12609,0.88367 0.0346,0.13191 0.14173,0.39988 0.17983,0.45268 0.0115,0.0145 0.0334,0.0476 0.0496,0.0713 0.0312,0.0475 0.14784,0.18321 0.20206,0.23461 0.0566,0.0528 0.16831,0.12547 0.24908,0.16227 0.29777,0.13599 0.62918,0.10708 0.89348,-0.0749 0.0831,-0.058 0.0947,-0.0688 0.19276,-0.185 0.12926,-0.1504 0.22405,-0.3471 0.34985,-0.72967 0.0289,-0.0844 0.0693,-0.18571 0.0889,-0.22531 0.0901,-0.17148 0.24003,-0.25918 0.43047,-0.25218 0.27934,0.009 0.43952,0.24038 0.41651,0.59789 -0.0335,0.51451 -0.20276,1.32825 -0.38396,1.84795 -0.0958,0.2731 -0.27461,0.65601 -0.34623,0.74311 -0.008,0.009 -0.015,0.0224 -0.015,0.0274 0,0.005 -0.01,0.0212 -0.0212,0.0357 -0.0115,0.0132 -0.0321,0.0435 -0.046,0.0672 -0.0981,0.15834 -0.26331,0.34415 -0.52761,0.59479 -0.0739,0.0686 -0.26305,0.20219 -0.40153,0.28009 -0.25045,0.1425 -0.55417,0.24412 -0.8046,0.27182 -0.48709,0.0515 -0.90242,-0.0637 -1.28674,-0.35657 -0.13273,-0.10158 -0.328,-0.29271 -0.39843,-0.39171 -0.0219,-0.0316 -0.0484,-0.0656 -0.0589,-0.0765 -0.0104,-0.0118 -0.0438,-0.0595 -0.0749,-0.10697 -0.25394,-0.37862 -0.4083,-0.80447 -0.5364,-1.47071 -0.0138,-0.0699 -0.0478,-0.28269 -0.0512,-0.32349 -0.002,-0.0186 -0.009,-0.0725 -0.016,-0.12248 -0.007,-0.0488 -0.015,-0.11079 -0.0176,-0.13849 -0.004,-0.0264 -0.0102,-0.10283 -0.0171,-0.16743 -0.053,-0.52771 -0.083,-1.504 -0.0599,-2.01848 0.007,-0.15964 0.0152,-0.36135 0.0186,-0.44855 0.004,-0.087 0.009,-0.20197 0.0124,-0.25477 0.004,-0.0528 0.01,-0.18988 0.016,-0.30334 0.0104,-0.18335 0.0177,-0.29819 0.0408,-0.67541 0.003,-0.0542 0.008,-0.12925 0.0114,-0.16485 0.004,-0.037 0.008,-0.10865 0.0114,-0.15864 0.004,-0.0515 0.009,-0.12525 0.0114,-0.16485 0.004,-0.0395 0.01,-0.10791 0.0119,-0.15141 0.008,-0.12139 0.0289,-0.39179 0.0636,-0.81132 0.0358,-0.43272 0.0356,-0.43053 0.0517,-0.61392 0.003,-0.0368 0.008,-0.0962 0.0114,-0.13178 0.0127,-0.15827 0.0359,-0.426 0.0636,-0.72553 0.007,-0.0725 0.0173,-0.19377 0.0233,-0.27027 0.007,-0.0764 0.0152,-0.1599 0.0171,-0.185 0.004,-0.025 0.009,-0.10779 0.0129,-0.18449 0.007,-0.13069 0.006,-0.14098 -0.0207,-0.18448 -0.0185,-0.0305 -0.0451,-0.0531 -0.0832,-0.0703 -0.0531,-0.0228 -0.11874,-0.0226 -1.11363,-0.0196 -1.05495,0.004 -1.05732,0.004 -1.11156,0.0331 -0.0289,0.0146 -0.0625,0.0426 -0.0729,0.061 -0.0404,0.0726 -0.0436,0.10145 -0.0863,0.86661 -0.006,0.1121 -0.014,0.24302 -0.0176,0.29042 -0.002,0.0475 -0.008,0.13874 -0.0114,0.20464 -0.007,0.13593 -0.0152,0.26503 -0.0233,0.38913 -0.004,0.0475 -0.008,0.12636 -0.0114,0.17776 -0.0139,0.21495 -0.0765,1.12001 -0.0868,1.25987 -0.006,0.0831 -0.0135,0.1875 -0.017,0.231 -0.0104,0.13722 -0.0288,0.38005 -0.0346,0.44855 -0.003,0.0356 -0.0142,0.16369 -0.0233,0.2837 -0.0219,0.27569 -0.0288,0.35206 -0.0346,0.40876 -0.004,0.025 -0.008,0.0751 -0.0103,0.11214 -0.0531,0.60814 -0.10628,1.11915 -0.18707,1.78801 -0.0727,0.61475 -0.19132,1.32706 -0.29404,1.7756 -0.12926,0.56462 -0.35659,1.1728 -0.56895,1.52239 -0.0196,0.033 -0.0416,0.0665 -0.0496,0.0765 -0.008,0.009 -0.0236,0.0343 -0.0351,0.0553 -0.0104,0.0223 -0.0228,0.0393 -0.0274,0.0393 -0.004,0 -0.0324,0.0371 -0.0636,0.0806 -0.0473,0.0673 -0.1026,0.12396 -0.27802,0.28887 -0.0427,0.0396 -0.2288,0.1506 -0.3142,0.185 -0.35665,0.14943 -0.70745,0.15183 -0.98908,0.007 -0.32547,-0.16884 -0.54729,-0.48907 -0.62115,-0.9033 -0.0324,-0.18469 -0.0331,-0.49908 -0.002,-0.66663 0.0658,-0.35223 0.14287,-0.57125 0.31833,-0.8971 0.0785,-0.14642 0.26924,-0.47215 0.28887,-0.49455 0.004,-0.004 0.015,-0.0209 0.0253,-0.0393 0.0115,-0.0186 0.044,-0.0714 0.0729,-0.11885 0.44436,-0.72165 0.73168,-1.39703 0.90021,-2.1239 0.0716,-0.30605 0.1232,-0.55021 0.15089,-0.7059 0.005,-0.0264 0.0235,-0.13211 0.0326,-0.18501 0.009,-0.0461 0.0521,-0.30221 0.0579,-0.33641 0.002,-0.0185 0.0124,-0.0868 0.0227,-0.15141 0.0219,-0.14247 0.0483,-0.33359 0.0656,-0.46819 0.007,-0.054 0.0174,-0.13478 0.0233,-0.17828 0.006,-0.0435 0.0188,-0.1479 0.0279,-0.231 0.009,-0.0831 0.022,-0.19925 0.0289,-0.25735 0.006,-0.058 0.0134,-0.12923 0.017,-0.15813 0.008,-0.0699 0.0256,-0.25732 0.0476,-0.50797 0.015,-0.18205 0.0219,-0.25587 0.045,-0.52762 0.009,-0.1095 0.0377,-0.54594 0.0574,-0.88367 0.004,-0.0541 0.008,-0.14152 0.0119,-0.19172 0.0289,-0.41154 0.0112,-0.49433 -0.1111,-0.54053 -0.0485,-0.0179 -0.0827,-0.0207 -0.29508,-0.007 -0.23775,0.0145 -0.31186,0.0195 -0.37879,0.0331 -0.40743,0.0726 -0.67154,0.2296 -1.0051,0.59634 -0.11888,0.1293 -0.27153,0.33637 -0.38809,0.52503 -0.0358,0.0583 -0.0703,0.11086 -0.0749,0.11886 -0.005,0.007 -0.0243,0.0394 -0.0439,0.0724 -0.0185,0.033 -0.0367,0.0622 -0.0403,0.0661 -0.004,0.004 -0.0195,0.0304 -0.0357,0.0594 -0.0496,0.087 -0.1363,0.18981 -0.20671,0.24391 -0.0808,0.0632 -0.18004,0.10034 -0.31626,0.12144 -0.24236,0.0357 -0.38325,0.004 -0.42943,-0.0961 -0.045,-0.10022 -0.0575,-0.32877 -0.0264,-0.48317 0.007,-0.0343 0.0139,-0.0723 0.016,-0.0832 0.0185,-0.0923 0.2064,-0.65403 0.28835,-0.86248 0.0139,-0.0369 0.045,-0.11742 0.0692,-0.17932 0.0854,-0.22163 0.27236,-0.63054 0.38085,-0.83767 0.0993,-0.18863 0.24144,-0.43807 0.25993,-0.45527 0.004,-0.004 0.016,-0.0235 0.0264,-0.0434 0.0115,-0.021 0.0292,-0.048 0.0372,-0.0589 0.009,-0.0119 0.0519,-0.0729 0.0946,-0.13488 0.0993,-0.14246 0.34063,-0.4193 0.45372,-0.5209 0.34281,-0.31134 0.81016,-0.5343 1.28106,-0.6134 0.0473,-0.007 0.0991,-0.0172 0.11524,-0.0212 0.0277,-0.005 0.27164,-0.0282 0.38706,-0.0362 v 5.2e-4 c 0.0323,-0.003 1.86724,-0.006 4.07985,-0.007 1.10629,-6.8e-4 1.92012,-10e-4 2.52078,-10e-4 z m 3.36878,0.15813 h 4.17908 l 2.5094,8.69404 2.48099,-8.69404 h 3.745509 v 12.74599 h -1.979209 v -10.55181 h -0.7736 l -2.75125,10.55181 h -0.23306 -1.84795 l -2.73575,-10.03349 v 10.03349 h -2.59416 z m -77.7032647,0.93896 c 0.832599,2.137 2.666272,5.18364 4.690669,6.26163 2.025198,1.071 4.415983,1.69328 6.685381,1.38028 -1.183799,-1.962 -2.95124,-4.0332 -4.874638,-5.2772 -1.926598,-1.24299 -4.210415,-2.28571 -6.501412,-2.36471 z m 128.2438507,0 c -2.291,0.079 -4.57482,1.12172 -6.50142,2.36471 -1.92339,1.244 -3.69083,3.3152 -4.87463,5.2772 2.26939,0.313 4.66018,-0.30928 6.68538,-1.38028 2.02439,-1.07799 3.85807,-4.12463 4.69067,-6.26163 z m -74.018737,0.83458 -6.713802,5.1e-4 v 1.20871 h 5.550048 v 9.84695 h 1.163754 z m -7.251237,2.23862 v 1.20871 h 5.326806 v -0.88935 c -0.0957,0.10406 -0.233474,0.16371 -0.378271,0.16381 -0.278597,-8e-5 -0.50439,-0.21638 -0.504362,-0.48317 z m -22.8384,0.0615 c -1.963998,1.183 -3.771383,2.371 -4.583182,4.516 -0.8055,2.144 -1.072608,4.18432 -0.308509,6.34432 1.682499,-1.555 3.106074,-3.13838 3.824573,-5.31337 0.715699,-2.178 1.378918,-3.27595 1.067118,-5.54695 z m 79.972894,0 c -0.3118,2.271 0.35142,3.36895 1.06712,5.54695 0.7185,2.17499 2.14207,3.75837 3.82457,5.31337 0.7641,-2.16 0.49699,-4.20032 -0.30851,-6.34432 -0.8118,-2.145 -2.61918,-3.333 -4.58318,-4.516 z m -45.802369,1.79834 c -0.189918,8.5e-4 -0.374198,0.0646 -0.524,0.18138 h -0.05788 v 0.0481 c -0.175842,0.16194 -0.276221,0.38986 -0.276986,0.62891 6.2e-4,0.23922 0.101011,0.46736 0.276986,0.62941 v 5.46995 h 1.163753 v -5.46995 c 0.175975,-0.16205 0.276366,-0.39019 0.276986,-0.62941 -4.6e-5,-0.23995 -0.100485,-0.46894 -0.276986,-0.63149 v -0.0455 h -0.05426 c -0.15078,-0.1175 -0.336464,-0.18133 -0.527616,-0.18138 z m 0,0.56327 c 0.174809,1.3e-4 0.316416,0.14197 0.316259,0.31678 -1.3e-4,0.17461 -0.141653,0.31613 -0.316259,0.31626 -0.174612,-1.3e-4 -0.31613,-0.14165 -0.31626,-0.31626 -1.57e-4,-0.17481 0.141445,-0.31665 0.31626,-0.31678 z m -31.250806,3.79047 c -1.685098,1.555 -3.010471,3.27311 -3.460771,5.52111 -0.444299,2.247 -0.34938,4.2118 0.805119,6.1898 1.361999,-1.842 2.523373,-3.59776 2.853573,-5.86476 0.326899,-2.26799 0.565378,-3.68415 -0.197921,-5.84615 z m 74.133458,0 c -0.7633,2.162 -0.52534,3.57816 -0.19844,5.84615 0.3302,2.267 1.49209,4.02276 2.854087,5.86476 1.1545,-1.978 1.24942,-3.9428 0.80512,-6.1898 -0.4503,-2.248 -1.77567,-3.96611 -3.460767,-5.52111 z m -97.5428817,1.33324 c -0.290543,0.003 -0.578592,0.023 -0.86248,0.062 1.183699,1.964 3.590209,4.61091 5.767607,5.32991 2.177198,0.714 4.7555417,1.026 6.9153397,0.262 -1.554898,-1.68199 -3.6001037,-3.367 -5.7428017,-4.177 -1.877048,-0.70788 -4.043865,-1.49916 -6.077665,-1.47692 z m 120.9522987,0 c -2.0338,-0.0222 -4.20061,0.76904 -6.07766,1.47692 -2.1427,0.81 -4.1879,2.49501 -5.7428,4.177 2.15979,0.764 4.73814,0.452 6.91534,-0.262 2.1774,-0.719 4.58339,-3.36591 5.76709,-5.3299 -0.28389,-0.039 -0.57142,-0.0588 -0.86197,-0.062 z m -93.40566,4.29277 c -1.364399,1.84299 -2.392508,3.85908 -2.423108,6.15208 -0.0249,2.29099 0.468592,4.31415 1.892391,6.10815 1.086399,-2.017 1.816863,-4.05794 1.743563,-6.34793 -0.0768,-2.291 -0.05875,-3.93131 -1.212846,-5.9123 z m 65.858513,0 c -1.1541,1.98099 -1.13553,3.6213 -1.21233,5.9123 -0.0733,2.28999 0.65665,4.33093 1.74305,6.34793 1.42379,-1.794 1.91729,-3.81716 1.89239,-6.10815 -0.0306,-2.293 -1.05871,-4.30909 -2.42311,-6.15208 z m -85.9394577,5.52524 c -1.189249,0.007 -2.367519,0.1642 -3.448368,0.5457 1.555498,1.685 4.296293,3.55711 6.5654907,3.8871 2.267797,0.325 4.907603,0.22693 6.886401,-0.92707 -1.842198,-1.362 -4.243845,-2.694 -6.490043,-3.14399 -1.124149,-0.2235 -2.3242317,-0.36824 -3.5134807,-0.36174 z m 106.0209147,0 c -1.18925,-0.007 -2.38933,0.13824 -3.51348,0.36174 -2.2462,0.44999 -4.64836,1.78199 -6.49056,3.14399 1.9788,1.154 4.61912,1.25207 6.88692,0.92707 2.2692,-0.32999 5.00999,-2.2021 6.56549,-3.8871 -1.08085,-0.3815 -2.25912,-0.5392 -3.44837,-0.5457 z m -76.584985,1.74821 -0.813904,6.46318 -6.439917,2.43241 c 9.481885,7.10359 20.076581,10.82907 30.84101,10.84481 10.58187,-0.0431 20.99769,-3.67091 30.350599,-10.57093 l -7.165449,-2.70629 -0.70487,-5.59605 c -7.19493,4.87923 -14.80486,7.40474 -22.48028,7.46053 -8.076907,-0.0891 -16.074673,-2.91281 -23.587189,-8.32766 z m -19.497518,6.41357 c -2.292198,-0.028 -4.738789,0.27588 -6.719487,1.42988 1.843098,1.365 4.671918,2.74412 6.963916,2.67012 2.289498,-0.079 4.740504,-0.72109 6.535002,-2.14508 -2.016798,-1.086 -4.488734,-1.92492 -6.779431,-1.95492 z m 86.144093,0 c -2.2907,0.03 -4.763147,0.86892 -6.779947,1.95492 1.7945,1.42399 4.246017,2.06608 6.535517,2.14508 2.292,0.074 5.1203,-1.30512 6.9634,-2.67012 -1.9807,-1.154 -4.42677,-1.45788 -6.71897,-1.42988 z m -39.923656,0.77153 c 0.0857,0.0157 0.17134,0.0308 0.25683,0.0455 -0.0855,-0.0146 -0.17112,-0.0298 -0.25683,-0.0455 z m -7.190778,0.216 c -0.04585,0.008 -0.09167,0.0167 -0.13746,0.0248 0.04579,-0.008 0.09161,-0.0164 0.13746,-0.0248 z m -11.672156,0.13695 c 0.487759,-0.0211 0.984358,0.0905 1.489831,0.33383 0.366992,0.17665 0.66926,0.39612 0.906922,0.65835 0.241082,0.26105 0.394683,0.53802 0.460954,0.83148 0.06627,0.29346 0.06123,0.63213 -0.0155,1.01596 l -0.686263,-0.12558 c 0.04828,-0.29518 0.05185,-0.54352 0.0098,-0.74569 -0.04199,-0.20216 -0.146892,-0.39771 -0.314709,-0.58653 -0.166706,-0.19112 -0.378385,-0.34847 -0.634587,-0.4718 -0.30698,-0.14778 -0.595104,-0.22819 -0.864547,-0.24133 -0.268327,-0.0155 -0.508548,0.0197 -0.720369,0.10542 -0.209512,0.0868 -0.396227,0.20262 -0.560173,0.3483 -0.28036,0.25168 -0.508562,0.56111 -0.685229,0.92811 -0.217778,0.45238 -0.322688,0.86835 -0.31471,1.24747 0.01029,0.38021 0.128381,0.7156 0.355018,1.00665 0.226631,0.29106 0.507653,0.5174 0.842325,0.67851 0.290823,0.14 0.601424,0.22137 0.931726,0.24392 0.331419,0.0202 0.598837,9.5e-4 0.803052,-0.0568 l 0.45527,-0.94517 -1.492416,-0.7183 0.286804,-0.59583 2.151807,1.03198 -0.906921,1.88309 c -0.456728,0.10423 -0.892652,0.13888 -1.307931,0.10387 -0.414163,-0.0373 -0.805822,-0.14468 -1.175122,-0.32246 -0.498548,-0.24 -0.900851,-0.56457 -1.207161,-0.97359 -0.302897,-0.4102 -0.461103,-0.86706 -0.47439,-1.37097 -0.01329,-0.50393 0.100031,-1.00523 0.340031,-1.50378 0.237778,-0.49394 0.562094,-0.9054 0.973067,-1.23352 0.414397,-0.32931 0.865641,-0.50449 1.353406,-0.52555 z m 30.997594,1.11001 c 0.23183,-0.0196 0.42092,0.005 0.5674,0.0744 0.14537,0.067 0.27735,0.17719 0.39585,0.33072 0.0715,0.0965 0.17324,0.28368 0.3054,0.56121 l 0.39688,0.83251 c 0.27644,0.58052 0.46404,0.94235 0.56327,1.0852 0.10045,0.13943 0.22367,0.26068 0.36949,0.36432 l -0.65216,0.31058 c -0.12643,-0.0987 -0.24047,-0.23016 -0.34158,-0.39481 -0.13766,0.30672 -0.29474,0.55147 -0.47129,0.73484 -0.17423,0.18227 -0.38374,0.33181 -0.6289,0.44855 -0.40474,0.19274 -0.76283,0.24293 -1.07384,0.14986 -0.31212,-0.0954 -0.54133,-0.29701 -0.68781,-0.60461 -0.0859,-0.1804 -0.12363,-0.3638 -0.11317,-0.55036 0.0117,-0.18998 0.062,-0.36172 0.15089,-0.51469 0.0912,-0.15408 0.20898,-0.29354 0.35347,-0.4191 0.10716,-0.0907 0.2774,-0.21022 0.51056,-0.35812 0.47555,-0.30022 0.81274,-0.54899 1.01131,-0.74569 -0.0384,-0.0867 -0.0634,-0.1412 -0.0744,-0.16433 -0.12114,-0.25439 -0.26502,-0.40581 -0.43253,-0.45372 -0.22677,-0.0651 -0.49782,-0.0226 -0.81236,0.12712 -0.29373,0.13987 -0.4857,0.29538 -0.57722,0.46664 -0.0903,0.16784 -0.10701,0.39867 -0.0496,0.69195 l -0.65009,0.20722 c -0.0689,-0.28777 -0.0786,-0.54156 -0.0274,-0.76171 0.0501,-0.22247 0.17539,-0.43396 0.37517,-0.63407 0.19868,-0.20243 0.45622,-0.3788 0.77308,-0.52968 0.31454,-0.14978 0.58775,-0.23465 0.81959,-0.25425 z m -26.45782,0.5488 0.670761,0.1695 -0.496094,1.95957 c 0.404642,-0.2834 0.845592,-0.36508 1.3224,-0.24443 0.293032,0.0742 0.532816,0.19706 0.719336,0.36845 0.187142,0.16891 0.300706,0.36688 0.341064,0.59376 0.04284,0.22752 0.01534,0.53502 -0.08268,0.92243 l -0.634587,2.50682 -0.670243,-0.1695 0.63407,-2.50682 c 0.08483,-0.33526 0.07355,-0.59744 -0.03462,-0.786 -0.105077,-0.19041 -0.290835,-0.3193 -0.556556,-0.38654 -0.198664,-0.0503 -0.399318,-0.0457 -0.60203,0.0139 -0.199599,0.0578 -0.358891,0.16551 -0.478007,0.32298 -0.119116,0.15746 -0.218076,0.39187 -0.296623,0.70228 l -0.547253,2.16421 -0.67076,-0.17002 z m 17.97461,0.80202 0.15865,0.77928 -0.67799,0.13797 -0.15813,-0.77928 z m 5.13716,0.14366 -0.22531,4.42505 c -0.0233,0.47764 -0.0531,0.81091 -0.0899,0.99994 -0.0483,0.25448 -0.13201,0.45598 -0.25166,0.6041 -0.11888,0.15055 -0.28352,0.25898 -0.49351,0.32556 -0.12698,0.0402 -0.27679,0.0584 -0.4501,0.0543 l -0.26976,-0.59583 c 0.15646,-0.007 0.28841,-0.0269 0.39585,-0.061 0.14651,-0.0464 0.25623,-0.10779 0.32866,-0.18449 0.0724,-0.0767 0.1226,-0.16817 0.15089,-0.27388 0.0206,-0.0791 0.036,-0.26379 0.046,-0.55449 5.9e-4,-0.0405 0.002,-0.1005 0.007,-0.17983 l -2.71146,-3.42925 0.71055,-0.22531 1.52342,1.99574 c 0.19558,0.25241 0.38503,0.52316 0.56793,0.81184 -0.0203,-0.32679 -0.0231,-0.65112 -0.01,-0.97255 l 0.11265,-2.53059 z m 4.23436,0.29972 c -0.18254,0.20044 -0.48496,0.44079 -0.90743,0.7214 -0.2391,0.15926 -0.40094,0.28756 -0.48524,0.38448 -0.0844,0.0969 -0.13396,0.20421 -0.14883,0.32194 -0.016,0.11542 0.002,0.22771 0.0537,0.33641 0.0793,0.16653 0.20775,0.27557 0.38551,0.32712 0.18006,0.0504 0.39174,0.0174 0.63458,-0.0982 0.24053,-0.11454 0.42963,-0.26819 0.56741,-0.46147 0.13668,-0.1956 0.20531,-0.4059 0.20619,-0.63046 -1.1e-4,-0.17302 -0.0658,-0.39709 -0.19689,-0.67231 z m -14.09733,0.19172 0.16382,2.00298 c 0.26124,-0.38887 0.61779,-0.60181 1.0697,-0.63872 0.2502,-0.0204 0.49042,0.0111 0.72089,0.0951 0.23281,0.0812 0.42802,0.20819 0.58601,0.38034 0.16033,0.16939 0.29204,0.37927 0.39481,0.63045 0.10275,0.2512 0.16619,0.52392 0.19016,0.81752 0.0569,0.69701 -0.0714,1.24973 -0.38499,1.6583 -0.31359,0.40857 -0.71169,0.63238 -1.19424,0.67179 -0.47998,0.0392 -0.87282,-0.13048 -1.17874,-0.50901 l 0.0413,0.50953 -0.63923,0.0522 -0.45889,-5.61413 z m 5.03484,0.88625 0.81287,3.99872 -0.678,0.13798 -0.81235,-3.99924 z m -12.44627,0.3359 c 0.08263,0.003 0.16755,0.009 0.254765,0.0186 0.346317,0.0379 0.622914,0.1098 0.83044,0.21497 0.207531,0.10517 0.355697,0.22582 0.443901,0.36174 0.08848,0.13338 0.142657,0.29647 0.162781,0.48937 0.0101,0.11964 -0.0017,0.33212 -0.03514,0.63769 l -0.100253,0.91674 c -0.06994,0.63915 -0.100293,1.04537 -0.09095,1.21905 0.01217,0.17141 0.05341,0.33956 0.12299,0.50436 l -0.718303,-0.0786 c -0.0557,-0.1504 -0.08321,-0.32201 -0.08268,-0.51522 -0.278328,0.18858 -0.540978,0.31455 -0.787549,0.37776 -0.244019,0.0635 -0.501089,0.0802 -0.771012,0.0506 -0.445627,-0.0488 -0.77599,-0.19456 -0.991671,-0.43718 -0.215404,-0.24519 -0.304742,-0.53673 -0.267684,-0.8754 0.02173,-0.19863 0.08631,-0.37492 0.19327,-0.52814 0.109783,-0.15548 0.242417,-0.27469 0.398425,-0.35811 0.15856,-0.0831 0.332499,-0.14019 0.521416,-0.17105 0.138856,-0.0209 0.346093,-0.0329 0.622184,-0.0362 0.562363,-0.005 0.979806,-0.0399 1.25212,-0.10284 0.01286,-0.0939 0.02099,-0.15386 0.02377,-0.17932 0.03065,-0.2801 -0.01289,-0.4846 -0.130225,-0.6134 -0.158702,-0.17456 -0.41126,-0.28042 -0.757576,-0.31832 -0.323398,-0.0354 -0.569034,-0.005 -0.736906,0.093 -0.165046,0.0953 -0.300327,0.28308 -0.40566,0.56275 l -0.661975,-0.16536 c 0.0926,-0.28106 0.218475,-0.5016 0.377755,-0.66198 0.159553,-0.16292 0.377017,-0.27737 0.652156,-0.34261 0.206564,-0.0508 0.433742,-0.0718 0.681612,-0.063 z m 5.04362,0.25631 c 0.2331,0.002 0.46925,0.0789 0.70848,0.22996 l -0.24494,0.63924 c -0.16802,-0.10166 -0.33686,-0.15326 -0.50592,-0.15503 -0.15112,-0.002 -0.2874,0.0429 -0.40876,0.13384 -0.121321,0.0884 -0.208564,0.2133 -0.261478,0.37414 -0.07941,0.2451 -0.120461,0.51363 -0.123507,0.80564 l -0.02222,2.1363 -0.691431,-0.007 0.04238,-4.08037 0.622701,0.006 -0.0067,0.61857 c 0.161827,-0.28779 0.309739,-0.47711 0.443898,-0.56793 0.13672,-0.0908 0.28615,-0.135 0.44752,-0.13332 z m 3.58634,0.45734 c -0.30126,0.0246 -0.55121,0.17746 -0.7493,0.45837 -0.19831,0.27835 -0.27713,0.66534 -0.23668,1.16065 0.0398,0.48765 0.13476,0.83459 0.28525,1.04077 0.246,0.33716 0.55429,0.49067 0.92449,0.46043 0.30127,-0.0246 0.55101,-0.1764 0.74931,-0.45475 0.19809,-0.2809 0.27591,-0.68061 0.23358,-1.19889 -0.0434,-0.53106 -0.18138,-0.91436 -0.41393,-1.1498 -0.23,-0.23567 -0.494,-0.34118 -0.79272,-0.31678 z m -7.731823,1.51309 c -0.260697,0.0745 -0.644452,0.12025 -1.151351,0.13694 -0.287113,0.01 -0.492241,0.0337 -0.61495,0.0718 -0.122709,0.0381 -0.221061,0.10351 -0.295589,0.19585 -0.07425,0.0898 -0.118162,0.19451 -0.131258,0.31419 -0.02006,0.18335 0.03193,0.34384 0.156063,0.48111 0.12668,0.13756 0.323802,0.22086 0.591178,0.25012 0.26483,0.029 0.506736,-0.003 0.725537,-0.0946 0.219078,-0.0946 0.38817,-0.23731 0.506946,-0.42789 0.09084,-0.14726 0.152877,-0.37239 0.186035,-0.67541 z" /></g></g></svg>
